<svg id="Layer_1" data-name="Layer 1" xmlns="http://www.w3.org/2000/svg" viewBox="0 0 1775 944"><defs><style>.cls-1{fill:#f0f;}</style></defs><path class="cls-1" d="M151.14,200.88A6471.39,6471.39,0,0,0,314.33,939.73q-49-252.47-98-504.93C206,381.52,195.73,326.18,209,273.54S266.07,171.8,320.34,171.17c12-.13,24.86,2.49,33.28,11.07,6.13,6.24,9.18,14.89,11,23.46,9.74,46.94-13.93,94.63-43.95,132S253.44,407,228.45,447.88"/><path class="cls-1" d="M148.24,201.68q23.38,145.8,53.37,290.45t66.56,287.71q20.61,80.63,43.27,160.68c1.06,3.76,6.52,2.16,5.79-1.59l-48.55-250.2L220.14,438.52c-13.87-71.46-30-154.4,17.14-217.48,18-24.12,44.79-43.53,75.43-46.46,16-1.52,34.78.75,43.49,16.12,4.5,7.94,6.26,17.54,7.11,26.53a113.29,113.29,0,0,1-.74,27.29c-11.25,75.58-78.43,122.82-121.7,180-5.34,7.06-10.37,14.35-15,21.89-2,3.3,3.16,6.32,5.18,3,39.67-64.53,109.89-108.13,132.73-183.18,5.27-17.31,7.44-35.63,5-53.62-2.32-17.17-8.61-33.88-25.82-40.71-14.58-5.8-32-4.37-46.85-.25a111.3,111.3,0,0,0-40,21.11c-24.49,19.81-41.9,48.57-49.79,78.94-10.31,39.74-7,81.4-.58,121.48,6.82,42.46,15.91,84.62,24.1,126.84L255,649.63l50.3,259.24,6.14,31.65,5.79-1.59Q277,796.84,243.29,653T182.47,364q-15.27-81.8-28.44-164c-.61-3.8-6.39-2.18-5.79,1.6Z"/><path class="cls-1" d="M481.54,378.62c-4.39,107.23,67.35,213.24,168.52,249,16.1,5.7,34.35,9.65,49.87,2.51,20.84-9.57,28.61-34.82,32.76-57.37a588.66,588.66,0,0,0-11-260.62"/><path class="cls-1" d="M478.54,378.62a241.86,241.86,0,0,0,5.86,62.78,261.78,261.78,0,0,0,21.19,59.15,272.78,272.78,0,0,0,34.59,52.9,265,265,0,0,0,45.67,43.19,244.16,244.16,0,0,0,54.77,30.64c21.23,8.49,48.08,16.22,68.26,1,16.64-12.55,22.87-34.28,26.54-53.85a580.82,580.82,0,0,0,9.33-81.27,589.37,589.37,0,0,0-2-81.58,592.2,592.2,0,0,0-13.26-81q-2.28-9.65-4.89-19.2c-1-3.72-6.8-2.15-5.79,1.59a581.38,581.38,0,0,1,15.73,78.65,592,592,0,0,1,4.77,80,580.34,580.34,0,0,1-6.1,79.67c-1.71,11.69-3.53,23.46-6.55,34.89-2.53,9.57-6,19-11.67,27.22a39.85,39.85,0,0,1-23.32,16.47c-11.79,2.84-24.24.28-35.57-3.3a226,226,0,0,1-55.94-27.14,254.7,254.7,0,0,1-46.47-39.59,266.18,266.18,0,0,1-36.11-49.43,259.42,259.42,0,0,1-23.82-56.51,239.94,239.94,0,0,1-9.36-60.22q-.18-7.5.12-15c.16-3.86-5.84-3.85-6,0Z"/><path class="cls-1" d="M804.24,271.9Q849.63,429.25,906.47,583c.17-44.8.46-90.42,14-133.13s42.71-82.83,84.76-98.3"/><path class="cls-1" d="M801.35,272.7Q810.2,303.41,819.5,334t19,61q9.74,30.44,19.9,60.74t20.77,60.46q10.59,30.15,21.63,60.15c.91,2.47,1.82,4.95,2.74,7.42,1.12,3.05,5.88,2.77,5.89-.8.07-19.63.17-39.28,1.39-58.89,1.2-19.42,3.54-38.8,8.13-57.72a198.52,198.52,0,0,1,17.35-46.62,158.31,158.31,0,0,1,27.25-37.42A120.94,120.94,0,0,1,1001,356.46c1.67-.72,3.37-1.38,5.08-2a3.08,3.08,0,0,0,2.09-3.69,3,3,0,0,0-3.69-2.1,123.46,123.46,0,0,0-40.28,24.82,157.8,157.8,0,0,0-29.69,37.31,195.57,195.57,0,0,0-19.13,45.81c-5.39,19.25-8.29,39.13-9.88,59s-1.86,39.82-2,59.75l0,7.6,5.89-.79q-11.08-30-21.74-60.12t-20.87-60.41q-10.23-30.29-20-60.71T827.6,340q-9.36-30.56-18.27-61.26c-.73-2.53-1.47-5.06-2.2-7.6-1.07-3.7-6.86-2.13-5.78,1.6Z"/><path class="cls-1" d="M1123.3,339.56a2890.87,2890.87,0,0,0,95.6,442.18c-37.25-24.36-53.86-69.82-66.16-112.59a1492.12,1492.12,0,0,1-58-416.8c.1-28.25,6.47-63.8,33.87-70.68,24.66-6.19,48.2,19.53,49,45s-13.87,48.57-29.51,68.62-33.26,39.78-40,64.29"/><path class="cls-1" d="M1120.41,340.36q11.85,87.45,29,174.07t39.58,172q12.67,48.29,27,96.13l4.41-3.39c-21.08-13.92-35.55-35.11-46-57.75-11.41-24.71-18.54-51.29-25.59-77.5A1486.14,1486.14,0,0,1,1097.73,265c-.11-21.94-.53-46.83,12-66,5.35-8.19,13.84-14.34,23.78-15.23,11.79-1.06,22.54,5.53,29.88,14.3a48.54,48.54,0,0,1,11.21,33.52c-.66,14.35-6.45,27.93-13.75,40.12-14.42,24.08-35.67,43.5-48.44,68.66a101.58,101.58,0,0,0-7.21,18.28c-1,3.72,4.74,5.31,5.79,1.6,8.1-28.67,30.28-49.81,47.1-73.44,15.52-21.81,29.69-50.85,18.75-77.71-8.84-21.7-32.52-38.8-55.91-27.93-20,9.3-26.24,34.06-28.32,54-1.45,13.88-.94,28-.76,41.87q.35,25.08,1.52,50.16,2.34,49.54,8,98.87a1499.09,1499.09,0,0,0,35.34,194.75c7.26,29,14.67,58.27,25.33,86.21,9.21,24.13,21.55,47.9,40.69,65.67a115.16,115.16,0,0,0,14.71,11.52c2.19,1.45,5.14-1,4.41-3.39q-25.33-84.54-45.5-170.5t-35-173q-8.41-49.22-15.11-98.7c-.51-3.81-6.3-2.19-5.78,1.59Z"/><path class="cls-1" d="M1228.56,63.57a2110.07,2110.07,0,0,0,97.6,481.71"/><path class="cls-1" d="M1225.56,63.57q4,48,10.19,95.86t14.52,95.17q8.31,47.23,18.77,94.08,10.49,47,23.13,93.57t27.39,92.42c1.23,3.8,2.46,7.61,3.71,11.4s7,2.09,5.78-1.59q-14.92-45.58-27.79-91.82t-23.59-93q-10.73-46.76-19.34-94t-15-94.75q-6.45-47.58-10.7-95.45-.52-6-1-11.95c-.32-3.82-6.33-3.85-6,0Z"/><path class="cls-1" d="M1363,265.39c32.53,7.28,66,14.6,98.92,9.42S1527.59,249,1537,217c11.76-39.94-23.64-86.15-65.27-85.2-9.61.22-19.63,2.81-26.49,9.56-5,4.89-7.85,11.5-10.37,18-21.45,55.21-25.29,122.35,10.15,169.8s118.53,57.53,151.67,8.44"/><path class="cls-1" d="M1362.22,268.29c31.47,7,64,14.24,96.36,10,24.44-3.19,48.79-13.81,65.42-32.43,8-9,14.17-19.82,16.81-31.6a64.49,64.49,0,0,0-1.64-33.25c-6.72-21.43-23.21-39.81-44.19-48a58.93,58.93,0,0,0-35.09-2.67,35.52,35.52,0,0,0-17.65,9.82c-5,5.34-7.82,12.1-10.41,18.8-9.47,24.5-15.32,50.62-16.18,76.91-.84,25.75,3.4,51.9,14.78,75.16a112.53,112.53,0,0,0,20.25,29.36,104.07,104.07,0,0,0,25,18.66,114.4,114.4,0,0,0,59.84,13.76c20-1.07,39.82-8.11,54.32-22.25a73.78,73.78,0,0,0,9.47-11.4,3,3,0,0,0-1.07-4.11,3.07,3.07,0,0,0-4.11,1.08,64.48,64.48,0,0,1-9.17,10.8,61.53,61.53,0,0,1-10.64,8.22q-3.07,1.9-6.32,3.51-1.42.71-2.88,1.35c-1.08.48-1.65.72-3,1.25a84.54,84.54,0,0,1-13.49,3.9c-1.16.24-2.32.45-3.49.64-.58.1-1.17.19-1.76.27,0,0-1,.14-.38.06l-.89.11c-2.47.3-5,.5-7.45.61a105.33,105.33,0,0,1-14.54-.37c-2.7-.26-4.24-.46-6.8-.88s-5.06-.93-7.55-1.51a113.65,113.65,0,0,1-14.21-4.35c-2.5-.95-4.07-1.6-6.43-2.69s-4.48-2.14-6.65-3.33a104.71,104.71,0,0,1-12.75-8.14c-.93-.7-1.3-1-2.32-1.8s-2.06-1.69-3.06-2.57c-1.85-1.62-3.64-3.3-5.36-5.06s-3.43-3.65-5-5.58c-.73-.89-1.45-1.79-1.91-2.4-1-1.29-1.94-2.62-2.86-3.95-14-20.17-21.27-44.2-23.08-68.47-1.88-25.33,1.64-50.8,8.77-75.11q2.7-9.24,6.11-18.26c2.24-5.91,4.59-12.17,8.74-17,8-9.36,21.38-11.42,33-10.23,1.27.13,2,.23,3.43.49s2.56.5,3.83.82a60.88,60.88,0,0,1,7.45,2.38,66.41,66.41,0,0,1,13.63,7.51,72.18,72.18,0,0,1,20.63,23.15,65.27,65.27,0,0,1,8.61,29.39,57.75,57.75,0,0,1-7.76,30.62c-11.34,20.06-32.33,33.34-54.17,39.57-28.7,8.18-59.37,4.14-88.11-1.67-7.49-1.51-14.94-3.17-22.39-4.84a3.07,3.07,0,0,0-3.69,2.1,3,3,0,0,0,2.09,3.69Z"/></svg>