<svg id="Layer_1" data-name="Layer 1" xmlns="http://www.w3.org/2000/svg" viewBox="0 0 2648 1505"><defs><style>.cls-1{fill:#f7931e;}.cls-2{fill:#fbb03b;}</style></defs><path class="cls-1" d="M603.47,575.88c-66.88-25.53-134.93-51.33-206.31-56.75s-147.89,12.34-198.24,63.23c-53.44,54-68.71,134.66-73.37,210.5C122,851,123.7,912,150.78,963.64c32.69,62.33,98.2,101.78,165.89,121.07,48.58,13.85,101.69,18.62,149,.79,52.18-19.7,91.49-65.1,115.23-115.57s33.75-106.17,42.36-161.28c10.65-68.13,19.54-137.73,8.6-205.82S587.45,467.36,529.46,430"/><path class="cls-2" d="M604.27,573c-67.19-25.64-135.74-51.66-208.13-56.92-58.53-4.26-120.74,6.65-170,39.94a199.58,199.58,0,0,0-59.91,64.17c-15,25.45-24.93,53.69-31.55,82.41-6.82,29.63-10.27,60-12.13,90.28-2.07,33.49-2.34,67.29,2.83,100.53,4.91,31.49,15.22,62.23,33,88.88,16.08,24.16,37.34,44.47,61.16,60.92,24.13,16.68,50.9,29.43,78.64,38.87,31.33,10.68,64.43,17.65,97.61,18,32.69.34,65.28-6.48,93.95-22.48,25.38-14.15,46.89-34.4,64.41-57.45,40.74-53.59,56.95-120.49,68-185.68,12.22-72.3,23.84-146.93,14.39-220.26-7.55-58.63-30.13-117.28-72.31-159.8A199.38,199.38,0,0,0,531,427.45c-3.25-2.1-6.26,3.09-3,5.18,49,31.71,79.77,84.78,94.47,140.26,18.11,68.38,11.78,140.54,1.74,209.67-9.73,67-19.73,137-51.71,197.54-27.25,51.62-71.67,95.9-130,109.22-32.76,7.48-67.1,5.52-99.8-1.28a347.58,347.58,0,0,1-85.07-29.34c-25.52-12.81-49.45-29.12-69.55-49.49a197.77,197.77,0,0,1-46.45-74.5c-10.71-31.14-14.17-64.24-14.41-97a655.64,655.64,0,0,1,5.91-92.56c7.77-57.42,25.28-116.6,66.52-159.19,40.92-42.28,99.93-61.6,157.64-64.38,67.83-3.28,134.23,16.3,197.34,39.17,16.1,5.83,32.09,11.92,48.09,18,3.61,1.38,5.17-4.42,1.59-5.79Z"/><path class="cls-1" d="M742.32,649.41,776.42,980c-7.88-94.74-8-192.17,22.1-282.35S893,524.72,982.39,492.25"/><path class="cls-2" d="M739.32,649.41l13.3,128.92,13.3,128.92,7.5,72.7c.39,3.79,6.32,3.88,6,0-3.44-41.46-5.4-83.11-4-124.72,1.37-41.22,6.07-82.41,16-122.48,8.61-34.64,21.21-68.16,38.61-99.37a339.48,339.48,0,0,1,60.26-79.13c23.64-22.81,51.1-41.78,81.4-54.61,3.78-1.6,7.61-3.09,11.47-4.5,3.6-1.31,2-7.11-1.6-5.79-31.58,11.54-60.48,29.35-85.66,51.57s-46.58,48.69-64,77.36A396.66,396.66,0,0,0,790,715c-11.49,40-17.46,81.47-19.81,123-2.39,42.17-1.06,84.48,2,126.57q.57,7.71,1.21,15.41h6L766.12,851l-13.3-128.92-7.5-72.7c-.39-3.8-6.39-3.84-6,0Z"/><path class="cls-1" d="M1238.67,462c-43.69,30.19-54.92,89-60.4,141.83-2.4,23.09-2.1,51.18,17.59,63.47,26,16.21,57.51-10.37,74.34-36a473.68,473.68,0,0,0,72.32-188.45,420.51,420.51,0,0,0,137.2,174"/><path class="cls-2" d="M1237.16,459.37a113.57,113.57,0,0,0-32.25,34.86c-8.4,13.91-14.25,29.3-18.55,44.93a357.16,357.16,0,0,0-9.31,49.08c-2,15.82-4,32-1.86,47.86,1,7.39,3.06,14.79,6.93,21.23a37,37,0,0,0,16.82,14.92c15.5,6.71,32.15.7,45.11-8.7a110.34,110.34,0,0,0,19.29-18.11,190.31,190.31,0,0,0,15.91-22.71,472.13,472.13,0,0,0,28-52,482.9,482.9,0,0,0,21.43-55.31A472.9,472.9,0,0,0,1343,457.84q1.31-7.08,2.38-14.18l-5.48.71a417.91,417.91,0,0,0,42.56,76.85,421.35,421.35,0,0,0,95.71,98.19,3,3,0,0,0,4.11-1.07,3.08,3.08,0,0,0-1.08-4.11,417.66,417.66,0,0,1-136.12-172.88c-1-2.3-5.11-1.74-5.48.71a473.89,473.89,0,0,1-31.05,110.73,467.15,467.15,0,0,1-25.39,51.59c-8.83,15.49-18,31.28-30.68,44-10.52,10.58-24.76,21.24-40.44,20.81a29.52,29.52,0,0,1-19-7.78A37,37,0,0,1,1183,644.28c-4.24-14.49-2.9-30.06-1.28-44.84a418.59,418.59,0,0,1,7.55-47.23c3.49-15.34,8.19-30.53,15.19-44.66,6.73-13.6,15.57-26.11,27-36.17a95.77,95.77,0,0,1,8.73-6.83,3.06,3.06,0,0,0,1.07-4.1,3,3,0,0,0-4.1-1.08Z"/><path class="cls-1" d="M1511,422.72a1174.25,1174.25,0,0,0,55.24,239.59c-8.64-110.95-13.62-234.28,57.16-320.17,10.5-12.74,23.78-24.94,40.19-26.71,32.39-3.5,53.26,32.62,64.75,63.1q34.2,90.75,62.88,183.45c2.57,8.29,6.06,17.65,14.2,20.68s18.68-8,12.26-13.85"/><path class="cls-2" d="M1508,422.72q5.87,47.85,15.56,95.12t23.27,93.4q7.65,26.12,16.52,51.87c1,3,6.17,2.77,5.89-.8-1.84-23.73-3.48-47.48-4.3-71.27s-.82-47.7.7-71.5a425.23,425.23,0,0,1,9.74-69.22,282.28,282.28,0,0,1,22.73-63.89,236.41,236.41,0,0,1,17.74-29.51c6.68-9.44,14-18.75,22.78-26.33,8.52-7.36,18.91-12.71,30.4-12.38,9,.25,17.51,4.2,24.39,9.94,7.73,6.46,13.8,14.68,18.9,23.31a182.67,182.67,0,0,1,13.37,28.5q15.46,41.09,29.81,82.57t27.56,83.35c2.09,6.64,4,13.33,6.25,19.92,1.74,5.17,3.9,10.34,7.57,14.47,3.37,3.8,8.27,6.5,13.45,5.72a15.54,15.54,0,0,0,10.79-7.49c2.24-3.9,2-8.61-1.32-11.81-2.78-2.67-7,1.56-4.24,4.24a2.79,2.79,0,0,1,1,3.19,8.4,8.4,0,0,1-2.88,4c-3.3,2.66-6.86,2.55-10.22.07-3.89-2.87-6.07-7.71-7.67-12.12-2.3-6.3-4.08-12.8-6.09-19.19q-13.12-41.71-27.37-83.06t-29.62-82.28c-7.39-19.67-16.35-40-31.82-54.79-6.84-6.52-15.17-11.82-24.54-13.71-11-2.21-22.15.2-31.75,5.87-10.34,6.11-18.61,15.14-26,24.47a235.32,235.32,0,0,0-19.34,28.41,272.31,272.31,0,0,0-26.06,63,394.07,394.07,0,0,0-12.21,68.35,638.7,638.7,0,0,0-2.43,70.94c.39,23.73,1.74,47.43,3.44,71.09q.61,8.58,1.29,17.14l5.89-.79q-15.6-45.37-27.48-91.9t-19.9-93.83q-4.49-26.44-7.75-53.07a3.1,3.1,0,0,0-3-3c-1.47,0-3.2,1.38-3,3Z"/><path class="cls-1" d="M1946.53,346.22c-34-20.93-71.77,24.76-77.11,64.29-3.4,25.19.4,55.5,22.44,68.18,20.51,11.79,48.07,1.54,63-16.81S1975,419.32,1979,396a2228.92,2228.92,0,0,1,219.86,664.6c11.88,73,18,155-26.76,213.77-41.76,54.85-115.14,72.78-182.79,86.09-7.11,1.4-15,2.64-21.13-1.31s-6.69-15.35.31-17.2"/><path class="cls-2" d="M1948.05,343.63c-18.84-11.19-39.32-3.57-53.9,10.89-16.33,16.18-26.3,38.67-28.34,61.45-1.86,20.66,1,45.59,17.46,60.19,18,16,44.36,12,62.55-1.59,24.18-18,31.19-49.69,36.08-77.76l-5.49.72a2218.59,2218.59,0,0,1,99.88,222.22A2230.75,2230.75,0,0,1,2151,850.52c20.27,76.59,37.56,154.64,48.35,233.17,9.3,67.62,10.84,146-38.56,199.53-22.69,24.6-52.82,40.65-84,51.79a462.41,462.41,0,0,1-47.55,13.84c-8.28,2-16.59,3.81-24.92,5.55s-17.34,4.49-25.91,4.42c-4.22,0-9.13-1.09-11.09-5.27-1.31-2.81-1.47-7.48,2-8.7s2.06-7.07-1.59-5.79c-5.65,2-8,7.39-7,13.13,1.17,6.82,6.41,11,13.06,12.22,8.36,1.47,17.2-1.19,25.35-2.84q12.86-2.6,25.65-5.51c34-7.84,68-18,98.39-35.6,30-17.36,54.7-42.41,69.17-74.11,14.95-32.76,18.95-69.33,18-105-1-38.21-7.38-76.07-14.07-113.62q-11.25-63.16-26.13-125.6a2231.69,2231.69,0,0,0-73.41-244.79,2231.43,2231.43,0,0,0-100.82-234.66q-7.07-14.15-14.33-28.18c-1.12-2.18-5-1.83-5.48.71-4,23-8.91,48.11-24.79,66.2-13.67,15.58-38.52,25.82-57.94,14.69-17.85-10.23-22.37-32.75-22-51.74a96.8,96.8,0,0,1,19.3-56.72c12.62-16.81,33.78-31.05,54.37-18.83,3.33,2,6.35-3.21,3-5.18Z"/><path class="cls-1" d="M2073.89,280.71c22.22,44.67,77.11,70.85,125.45,58.49s84.18-63,78.23-112.57-54.13-90.65-103.91-87.24c-7.12.49-14.51,1.91-20.13,6.32-7.7,6-10.48,16.29-12.81,25.8-20.44,83.59-36,185.19,26.66,244.14,33.58,31.58,82.14,41.66,128.23,42.72,64.72,1.48,135-15.52,175.18-66.25"/><path class="cls-2" d="M2071.3,282.23c15.69,31.31,46.93,53.84,81.07,60.74a102.9,102.9,0,0,0,96.31-29.29c24.72-25,38.1-61.84,30.26-96.68-7.74-34.44-34.88-63.3-67.82-75.18a95.13,95.13,0,0,0-25.17-5.38c-9.38-.71-19.67-.39-28.39,3.44-9.11,4-14.16,12.33-17.15,21.45-2.86,8.72-4.67,17.87-6.69,26.82-8.13,35.85-14.45,72.62-14,109.49.45,34.18,7.23,69.32,26.69,98a132.41,132.41,0,0,0,39.2,37.8c16.72,10.49,35.57,17.35,54.78,21.62a287.67,287.67,0,0,0,58.73,6.34,312.15,312.15,0,0,0,55.79-4.2c36.16-6.09,71.92-19.61,99.81-44a146.37,146.37,0,0,0,18.15-19,3.09,3.09,0,0,0,0-4.24,3,3,0,0,0-4.24,0c-22.19,27.87-54,45.64-87.86,55.29-34.88,9.93-72,12.15-108,8.77-37.32-3.51-75.89-14.56-103.68-40.92-24.11-22.87-36.9-54.06-41.3-86.59-4.72-34.86-1-70.57,5.2-105q4.7-26,11.22-51.59c2.1-8.3,4.84-17.82,12.42-22.8s17.75-5.27,26.55-4.9c33.59,1.44,64.73,23,80.75,52.09a89.64,89.64,0,0,1,11.17,48,101.26,101.26,0,0,1-15,47.12c-17.63,28.92-48.46,48.88-82.68,49.77-33.22.87-66.2-14.51-87.61-39.78a101.79,101.79,0,0,1-13.3-20.24c-1.73-3.45-6.91-.42-5.18,3Z"/></svg>