<svg id="Layer_1" data-name="Layer 1" xmlns="http://www.w3.org/2000/svg" viewBox="0 0 2349 1381"><path d="M201,201.31c5.78,335.26,107.78,660.49,208.84,980.21C280.9,991.68,265.19,748.36,271,519c2.4-95.06,19.05-208.1,104.78-249.25,7.88-3.79,16.63-6.84,25.22-5.28,15.94,2.89,24.93,20.1,28.21,36,12.17,58.92-21.91,117.68-62.6,162s-89.93,82.1-119.64,134.42A598.63,598.63,0,0,1,508.4,498.79c13.67-1.68,27.82-2.85,41,1.15,29.26,8.87,45.65,40.67,50.22,70.91,9.84,65.14-19.71,129.37-52,186.81C487.2,865.27,407.93,971,293.16,1016.41"/><path d="M198,201.31a1934.22,1934.22,0,0,0,13.7,195.54c7.73,64.53,18.35,128.7,31.15,192.41,12.93,64.3,28.06,128.13,44.67,191.57,16.65,63.63,34.79,126.87,53.7,189.87s38.59,125.69,58.39,188.38q3.68,11.63,7.34,23.23l5.48-2.31c-53.14-78.48-87.69-167.67-108.56-259.82C282.58,826.37,274.88,730,273.28,634c-.76-45.78-.8-91.78,1.53-137.52,2-39.27,6.7-78.87,18.55-116.5,11.21-35.58,29.79-70.14,60-93.07a138.51,138.51,0,0,1,22.73-14c11.43-5.61,24.79-9.14,35.46-.1,16.88,14.28,18.35,42.56,16.7,62.85-4,48.68-33.68,92.28-66,127.08S292.8,528.2,263.79,566.17a266,266,0,0,0-19.45,29.17c-1.42,2.48,1.54,5.84,4.11,4.1A598.23,598.23,0,0,1,430,517q24.09-6.37,48.66-10.72c16.82-3,34.24-6.2,51.37-6,15.59.16,29.84,5.18,41,16.16,9.8,9.6,16.53,22.05,20.84,35,10.28,30.86,7.81,65.25,0,96.37-8.45,33.76-23.43,65.51-40,96-28.83,53.11-61.57,104.75-101,150.68-38.48,44.81-84,84.23-137.57,109.91q-10.34,5-21,9.19c-3.54,1.41-2,7.22,1.59,5.79,56.9-22.66,106-60.34,147.39-105.12C483.6,868.41,518.16,816,548.73,761.85c33.21-58.81,66.53-127.76,52.84-197.23C596.5,539,582.73,511.41,557.86,500c-15.63-7.17-32.81-6.23-49.46-4.19s-33.42,4.8-49.95,8.27a602.12,602.12,0,0,0-191.38,76.22q-11,6.75-21.65,14l4.1,4.11c49.26-86,151-134.2,179.38-233.63,6.38-22.36,8.27-47.14,2-69.77-5.46-19.81-20.23-38-42.81-33-10.11,2.26-19.83,7.73-28.51,13.26a144.81,144.81,0,0,0-22.18,17.36c-13.39,12.77-24.28,28-32.89,44.39-18.64,35.41-27.3,75.35-32,114.82-5.27,44-5.37,88.49-5.54,132.71-.38,98.93,4.62,198.36,22.57,295.81,17.57,95.42,48.24,189.12,98.4,272.57q9.21,15.33,19.25,30.12c1.82,2.68,6.57,1.11,5.49-2.31C393,1118.36,373.29,1056,354.3,993.41S317,867.89,300,804.64s-32.62-127.12-46.13-191.33C240.4,549.31,229,484.85,220.55,420c-8.42-64.48-14-129.35-16-194.35q-.37-12.16-.58-24.33c-.07-3.86-6.07-3.87-6,0Z"/><path d="M683.52,210.77V812.52"/><path d="M680.52,210.77V812.52c0,3.86,6,3.87,6,0V210.77c0-3.86-6-3.86-6,0Z"/><path d="M1073.28,473.23C984.53,441.36,874.64,498,849.15,588.83c-8.19,29.2-6,65.8,19,82.95,34,23.32,79-5.78,107.38-35.7a754.93,754.93,0,0,0,101-133.52c10.31-17.34,29-38,46.47-27.95,4.34,2.48,7.5,6.55,10.55,10.52q62.46,81.24,124.91,162.5"/><path d="M1074.08,470.34c-24.79-8.85-51.51-10.93-77.51-7.33a190.28,190.28,0,0,0-73.49,26.73,183.09,183.09,0,0,0-56.4,54c-14.71,22.17-24.85,48.71-24.79,75.56,0,13.51,2.68,27.49,9.77,39.16a51.37,51.37,0,0,0,32.86,23.6c14.43,3.06,29.16-.33,42.41-6.21,14.5-6.43,27.59-16,39.33-26.52,12.75-11.47,24.14-24.59,35.32-37.56q17.7-20.53,33.91-42.29t30.8-44.57c4.73-7.39,9.19-14.92,13.79-22.38a88.53,88.53,0,0,1,14.24-18c4.71-4.46,10.65-8.84,17.32-9.53,7.73-.79,13.39,4.07,17.93,9.76,12.27,15.37,24,31.21,36,46.82q36.33,47.25,72.65,94.52l17.67,23a3.11,3.11,0,0,0,4.11,1.08c1.27-.73,2.06-2.82,1.07-4.11l-71.91-93.55L1153.34,506q-8.91-11.59-17.82-23.18c-4.73-6.14-10.17-12-18.16-13.42-14.7-2.61-27.34,9.66-35.57,20.25-5,6.41-9,13.44-13.19,20.34q-7,11.38-14.38,22.53A749.49,749.49,0,0,1,989,617c-20.77,23.3-44,47.84-74.78,57.26-13.14,4-27.49,4.39-39.87-2.24-11.68-6.26-19.5-17.12-23.28-29.67-7.7-25.57-1.11-53.91,10.3-77.32,11.24-23,28.15-43,48.33-58.77a187.13,187.13,0,0,1,69-33.69c24.68-6.22,50.8-7.23,75.7-1.69a151,151,0,0,1,18.07,5.22c3.65,1.3,5.22-4.49,1.6-5.78Z"/><path d="M1503.89,453c-43.1-12.07-91.33-10.16-130.25,11.94s-66.29,66.22-62.1,110.78c1.25,13.37,5.61,27.14,15.59,36.12,8.72,7.86,20.59,11.11,32.12,13.34,76.45,14.82,159-5.82,219.51-54.86"/><path d="M1504.68,450.07a198.25,198.25,0,0,0-59.83-7.38,163.54,163.54,0,0,0-58.65,12.66,131.85,131.85,0,0,0-45.26,31.81,126.7,126.7,0,0,0-27.47,46.38c-5.6,17.2-7.26,36.29-3,54,2.2,9.2,6.32,18.17,13,25,7.06,7.12,16.54,11.09,26.09,13.58a211.14,211.14,0,0,0,28.89,5.05,261.68,261.68,0,0,0,28.67,1.74,277.49,277.49,0,0,0,112.5-23.27,265,265,0,0,0,49.83-28.42q5.82-4.21,11.41-8.76a3,3,0,0,0,0-4.24,3.08,3.08,0,0,0-4.24,0,258.91,258.91,0,0,1-46.91,30.1,272.41,272.41,0,0,1-107.26,28.24,260.15,260.15,0,0,1-55.61-3c-9.2-1.53-18.74-3.24-27.26-7.18a40.75,40.75,0,0,1-11.27-7.47,39.86,39.86,0,0,1-7.79-10.77c-4-7.88-5.72-16.83-6.25-25.59a97.66,97.66,0,0,1,1.76-25.2,116.36,116.36,0,0,1,21.43-46.68,124.31,124.31,0,0,1,39-33.87,147.47,147.47,0,0,1,54.62-17,185.38,185.38,0,0,1,57.89,2.77q7.08,1.44,14,3.4c3.72,1,5.31-4.75,1.59-5.79Z"/><path d="M1668.79,182.34l31.55,1126.74"/><path d="M1665.79,182.34l12.34,440.8,12.28,438.55,6.93,247.39c.11,3.85,6.11,3.87,6,0L1691,868.28l-12.28-438.55-6.93-247.39c-.11-3.85-6.11-3.86-6,0Z"/><path d="M1962,446c-28.26,1.51-273.54,169.09-282.57,195.91a2569.78,2569.78,0,0,1,485.23,18"/><path d="M1962,443c-5.32.31-10.58,3-15.31,5.19-8.23,3.83-16.19,8.24-24.07,12.73-23,13.15-45.42,27.44-67.58,42q-38.93,25.55-76.79,52.63c-22.46,16.06-44.73,32.47-66.15,49.9-7.58,6.17-15.08,12.46-22.17,19.19-4.33,4.12-9,8.51-12.11,13.71a15.8,15.8,0,0,0-1.28,2.77,3,3,0,0,0,2.89,3.8q95.1-5.46,190.41-3.9,94.76,1.57,189.22,10.12,52.92,4.8,105.6,11.78c1.62.21,3-1.54,3-3,0-1.8-1.4-2.79-3-3q-94.42-12.49-189.6-18-94.61-5.45-189.45-3.92-53.13.85-106.18,3.92l2.89,3.8c.33-1-.36.53.18-.41.24-.42.45-.85.7-1.26s.51-.78.77-1.16l.54-.73c.52-.73-.24.27.22-.3a90.42,90.42,0,0,1,6.18-6.8c6.32-6.33,13.14-12.18,20-17.9,20-16.69,41-32.26,62.15-47.53q37.31-27,75.69-52.39c22.81-15.14,45.86-30,69.48-43.83,8.49-5,17.06-9.86,25.85-14.29q2.52-1.28,5.09-2.49l2.32-1.06,2-.88a51.72,51.72,0,0,1,6.78-2.37c.43-.1.87-.17,1.3-.27.71-.16-.78,0,.42,0,3.84-.23,3.86-6.23,0-6Z"/><path d="M2250,672.25c3.86,0,3.86-6,0-6s-3.87,6,0,6Z"/></svg>