<svg id="Layer_1" data-name="Layer 1" xmlns="http://www.w3.org/2000/svg" viewBox="0 0 1468 1162"><defs><style>.cls-1{fill:blue;}</style></defs><path class="cls-1" d="M191,459.63a2443.86,2443.86,0,0,0,94.84,517.06A688.25,688.25,0,0,1,151,658.65c-7.82-53.24-9.11-108.92,9.22-159.51s59.26-95.38,111.84-106.83c27.42-6,58.76-1.62,78.62,18.21,12.2,12.18,19,29.07,21.22,46.16,9.15,69.19-48.52,127.25-101.2,173l-87.15,75.72,189.18-10.57c18.86-1.06,38.59-2,55.77,5.9,18.5,8.47,31.36,26.06,39.62,44.65,28.09,63.14,9.47,139.29-30.08,196s-97.15,97.77-154,137.11"/><path class="cls-1" d="M188,459.63q7.58,102.43,23.68,204t40.8,201.78q13.89,56.4,30.47,112.09l5.48-2.31a685.85,685.85,0,0,1-133-308c-6.31-39.15-9.5-79.48-4-118.94,4.95-35.49,17.25-69.91,39.34-98.4,19.5-25.17,46.2-45.37,77.29-53.47,31.75-8.27,70.37-2.61,89.19,27,18.66,29.36,15,68,1.13,98.46-14.22,31.25-37.77,57.44-62.35,80.94-13.48,12.9-27.63,25-41.71,37.27L205,682.82l-23.58,20.49c-1.93,1.68-.41,5.26,2.12,5.12l159.24-8.9c12.8-.71,25.61-1.56,38.42-2.1,11.95-.52,24.13-.55,35.79,2.47,21.33,5.51,36.19,22.21,45.82,41.29,19.51,38.68,19.4,84.42,7.73,125.4-12.24,43-36.94,80.57-67.58,112.68-31.73,33.26-68.9,60.67-106.45,86.92q-7,4.86-14,9.7c-3.16,2.19-.16,7.39,3,5.19,38.75-26.84,77.57-54.18,111.39-87.21,32.62-31.86,60-69.11,75.15-112.43,14.46-41.29,17.8-87.78,2-129.21-7.41-19.48-18.88-38.61-36.81-50.05-20.49-13.08-45.49-11.39-68.7-10.09L204,701.29l-20.42,1.14,2.12,5.12c32.83-28.52,66.05-56.65,98.43-85.66,26.52-23.77,52.42-49.59,70.68-80.45,17.3-29.22,26.56-64.15,17.6-97.73-4.56-17.09-14.1-32.73-28.76-42.93-13.61-9.48-30.43-13.63-46.86-13.93-33.33-.61-65.31,14.57-89.73,36.54-25.37,22.82-43.33,53.11-53.25,85.61-12.05,39.45-13.09,81.45-9.14,122.24a651.8,651.8,0,0,0,22,114.65,692.07,692.07,0,0,0,99.76,209.52q8.16,11.58,16.79,22.8c1.91,2.49,6.54,1.23,5.48-2.32q-29.25-98.37-50.2-199Q217.62,676.51,205.2,574.58q-7-57.33-11.22-115c-.28-3.83-6.28-3.86-6,0Z"/><path class="cls-1" d="M529.27,390.31A1979.19,1979.19,0,0,0,610.6,863.6"/><path class="cls-1" d="M526.27,390.31q2.29,47,6.81,93.94t11.24,93.4q6.73,46.61,15.67,92.86,8.88,46,20,91.58,11.12,45.76,24.4,91,1.67,5.69,3.37,11.34c1.11,3.69,6.9,2.12,5.79-1.59Q600,817.91,588.66,772.42T568.14,681Q559,635,552,588.65T540.2,495.57q-4.77-46.63-7.32-93.44-.32-5.91-.61-11.82c-.18-3.84-6.18-3.86-6,0Z"/><path class="cls-1" d="M811.18,470.06c-6.2,40.17-12.07,83,4.64,120.05s65.51,62.45,99.42,40c20-13.18,28.55-37.92,33.56-61.31a372.13,372.13,0,0,0-9.16-189.57"/><path class="cls-1" d="M808.29,469.26c-2.82,18.26-5.53,36.61-6.22,55.09-.68,18.08.64,36.47,6,53.82a96.62,96.62,0,0,0,9.76,22.14,90.25,90.25,0,0,0,48.72,38.12c12.67,3.92,26.69,4.47,39.24-.19,14.32-5.33,25.25-16.5,32.5-29.74,7.77-14.21,11.76-30.14,14.82-45.93a376.44,376.44,0,0,0-6.63-170.7q-1.86-6.74-4-13.4a3,3,0,0,0-5.79,1.6A366.42,366.42,0,0,1,953.94,490,365,365,0,0,1,950,545.36c-2.44,16.43-5.57,33.12-11.58,48.66-5.18,13.38-13.24,26.28-25.55,34.08a46.85,46.85,0,0,1-17.3,6.71,34.32,34.32,0,0,1-4.16.55c-1.56.14-3.13.2-4.7.21s-3.16-.06-4.73-.18-2.89-.28-4.25-.5a67.76,67.76,0,0,1-9.42-2.2,71.14,71.14,0,0,1-8.79-3.33,85.62,85.62,0,0,1-16.82-10.24A81.83,81.83,0,0,1,818,587.58c-7-15.88-9.67-33.33-10-50.56-.36-17.8,1.64-35.57,4.18-53.15q.95-6.51,2-13a3.1,3.1,0,0,0-2.1-3.69c-1.42-.39-3.44.48-3.69,2.09Z"/><path class="cls-1" d="M1015.07,380.16l138.67.51c8.12,0,17-.24,23.08-5.67,5.22-4.7,6.9-12.12,7.6-19.11,4.42-43.72-21.66-88.86-61.74-106.88-5-2.26-10.7-4.15-16-2.48-4.56,1.44-7.9,5.31-10.68,9.21-36.72,51.71-3,132.83,56.69,154.38s129.6-8.81,166.7-60.24"/><path class="cls-1" d="M1015.07,383.16l97.31.36,24.33.08c7.57,0,15.18.32,22.74,0,6.5-.29,13.18-1.44,18.42-5.57s7.68-10.36,8.8-16.63c4.23-23.5-1.75-48.77-13.4-69.31S1143,253.59,1120.75,245c-6.7-2.59-14.09-3.1-20.09,1.42-4.73,3.57-8.15,8.83-11.1,13.9a85.49,85.49,0,0,0-10.24,28c-3.56,20-.59,40.74,7.1,59.41,7.87,19.09,20.38,36.42,36.69,49.18a105,105,0,0,0,27,15.47,119.83,119.83,0,0,0,34,7.44c23.6,1.76,47.32-3.24,68.89-12.7a168.34,168.34,0,0,0,69-55.69,3,3,0,0,0-1.08-4.1,3.06,3.06,0,0,0-4.1,1.07,163.18,163.18,0,0,1-50.69,45.38c-19.48,11.23-41.44,18.61-64,20.1-21.3,1.41-43.43-2.35-62.16-12.81-17-9.51-31-24-40.77-40.75-9.67-16.57-15.43-35.58-15.48-54.72a85.82,85.82,0,0,1,4.26-27.42,75.1,75.1,0,0,1,5.48-12.71c2.45-4.5,5.25-9.18,9-12.77a12.06,12.06,0,0,1,7.58-3.74,22.62,22.62,0,0,1,9.83,2.13,89.61,89.61,0,0,1,14.78,8A103.41,103.41,0,0,1,1159.35,282c13.72,17.6,22,39.68,22.53,62.05a75.22,75.22,0,0,1-1.22,16.95c-1.16,5.59-3.5,11-8.72,13.84s-11.35,2.87-17,2.88c-7.69,0-15.38-.06-23.07-.08l-94-.35-22.81-.08c-3.86,0-3.87,6,0,6Z"/></svg>