<svg id="Layer_1" data-name="Layer 1" xmlns="http://www.w3.org/2000/svg" viewBox="0 0 2593 1107"><defs><style>.cls-1{fill:lime;}</style></defs><path class="cls-1" d="M457.29,450.41c-15.53-12.37-39.83-6.6-53.87,7.43S383.2,491.76,378,510.93a1085.74,1085.74,0,0,0-34.81,354.72c.88,13,2.14,26.54,8.69,37.84,14.4,24.83,48,29.85,76.61,28.29,141.17-7.72,261.45-106.61,349-217.66"/><path class="cls-1" d="M459.41,448.29c-11.78-9.17-27.42-9.45-40.88-3.91-14.93,6.15-25.29,18.69-32.11,33-7.54,15.83-11.56,33.24-15.81,50.16q-7.2,28.65-12.83,57.65a1091.74,1091.74,0,0,0-19.67,234.37c.46,19.08.9,38.4,3.09,57.38,1.84,16,7,31.41,20,41.81,22.88,18.34,55.55,17.63,83.14,14.78a355.9,355.9,0,0,0,92.34-22.62,447.45,447.45,0,0,0,84.52-44.3,595.78,595.78,0,0,0,76.23-60.53,769.13,769.13,0,0,0,67.36-71.52q7.53-9.06,14.83-18.32c2.36-3-1.86-7.27-4.25-4.24a818.46,818.46,0,0,1-62.81,71.12,634.17,634.17,0,0,1-72,62.61,482.21,482.21,0,0,1-79.87,48.33,370.74,370.74,0,0,1-87.56,29.16,319.15,319.15,0,0,1-45.9,5.62c-13.8.66-27.91-.14-41.22-4.11C373.47,921,361.7,914,354.85,902.55c-4.42-7.38-6.44-15.91-7.5-24.36-1.15-9-1.53-18.19-2-27.28a1080.92,1080.92,0,0,1,35.91-340.32c4.21-15.52,9-31.51,18.92-44.48,8.74-11.5,22.24-19.6,37-19.48a29.64,29.64,0,0,1,18.05,5.9c3,2.34,7.29-1.87,4.24-4.24Z"/><path class="cls-1" d="M786.06,706.2c3.86,0,3.87-6,0-6s-3.87,6,0,6Z"/><path class="cls-1" d="M677.63,683.82l154.76-1c10-.06,21.49.5,27.85,8.26,4.94,6,5.15,14.48,5.13,22.26q-.32,108.33-.62,216.65"/><path class="cls-1" d="M677.63,686.82l85.87-.56,42.93-.27,21.47-.14c5.49,0,11.41-.24,16.65.61,4.91.8,9.53,2.34,12.86,5.93,3.61,3.88,4.55,9.43,4.83,14.53.36,6.53.11,13.12.09,19.65L862.27,748,862,833.65q-.13,42.93-.25,85.86l0,10.48c0,3.87,6,3.87,6,0q.12-43.43.25-86.86t.25-87.11c0-14.42.11-28.85.12-43.27,0-5.83-.14-12-2.31-17.46a21.83,21.83,0,0,0-11.42-12.1c-5.15-2.3-10.75-3.06-16.34-3.29-6.53-.27-13.1,0-19.64,0l-43.68.28-86.86.56-10.49.07c-3.86,0-3.87,6,0,6Z"/><path class="cls-1" d="M903,634.22a1096.7,1096.7,0,0,0,55.67,311c-10-72.37-19.88-146.39-5.33-218s58.47-141.52,126.87-167.15"/><path class="cls-1" d="M900,634.22a1102.71,1102.71,0,0,0,35.85,245q8.89,33.71,19.93,66.81c1.25,3.76,6.3,2.14,5.78-1.6-4.46-32.46-8.87-65-11.09-97.68-2.21-32.43-2.3-65.19,2.15-97.45,3.67-26.56,10.48-52.66,21.37-77.2,10.06-22.65,23.3-44,40-62.43,16.51-18.21,36.35-33.33,58.86-43.34,2.69-1.2,5.42-2.3,8.18-3.34,3.58-1.34,2-7.15-1.59-5.78a178.1,178.1,0,0,0-62.72,40.9c-18,18-32.59,39.3-43.76,62.11a280.86,280.86,0,0,0-24.15,75c-5.73,32.61-6.7,65.84-5.07,98.86,1.65,33.4,5.88,66.61,10.39,99.74q.82,6.09,1.67,12.2l5.78-1.6a1094.71,1094.71,0,0,1-51.08-240.67q-3.36-34.69-4.48-69.57c-.13-3.85-6.13-3.87-6,0Z"/><path class="cls-1" d="M1141.15,593.26l112.94,4.36c11.73.45,23.92.82,34.68-3.88,30-13.11,30.52-59.26,8.79-83.72s-55.91-32.75-87.87-39.77a536.78,536.78,0,0,0-10.12,144.18c.91,13.84,2.48,28.08,9.11,40.27,9,16.54,26,27,43.11,35,107.14,50.13,245,24,326.36-61.94"/><path class="cls-1" d="M1141.15,596.26l88.18,3.41,22.15.85a181.34,181.34,0,0,0,19.92.12c11-.77,21.7-3.95,29.86-11.59,13-12.16,16.2-31.42,13.55-48.34a66.71,66.71,0,0,0-9.34-25.12c-5.66-8.94-13.75-16.24-22.44-22.15-19.09-13-42-19.15-64.24-24.23-2.76-.63-5.53-1.24-8.3-1.85a3,3,0,0,0-3.69,2.1,540.5,540.5,0,0,0-10.28,144.12c.7,11,1.7,22.27,5.3,32.79A62.67,62.67,0,0,0,1218,671.55c13.87,13.24,32.2,21.45,49.9,28.24,33.67,12.91,69.94,18.81,106,18.18a303.43,303.43,0,0,0,105.77-21c33.67-13.29,64.95-32.65,91.21-57.64q4.83-4.61,9.41-9.45c2.66-2.8-1.57-7-4.24-4.24a272.6,272.6,0,0,1-85.85,60.42,296.37,296.37,0,0,1-102,25.33A282.65,282.65,0,0,1,1283.88,699c-17.13-5.46-34.38-12.39-49.48-22.24-8-5.18-15.37-11.55-20.65-19.5-5.9-8.88-8.64-19.28-10-29.75a333.33,333.33,0,0,1-2.12-33.44q-.5-17.79.21-35.59a531.08,531.08,0,0,1,7.47-70.39c1-5.71,2.09-11.4,3.26-17.07l-3.69,2.1c37.33,8.2,87.68,20,98.78,62.67,3.92,15.08,2.79,33.47-7.66,45.83-6.13,7.26-14.65,11.16-24,12.51a107.18,107.18,0,0,1-19.21.56c-7-.24-14-.53-21-.8l-94.69-3.66c-3.87-.15-3.86,5.85,0,6Z"/><path class="cls-1" d="M1565.06,526.48l118.13-2.24c20-.38,48.23-15.48,36.36-31.56-3.37-4.56-9.12-6.56-14.52-8.31-21-6.81-42.68-13.69-64.62-11.56s-44.35,15.75-49.64,37.16c-5.63,22.78,9.18,45.45,25.45,62.37,52.34,54.45,129,84.58,204.4,80.37S1968.85,610,2014.79,550.05"/><path class="cls-1" d="M1565.06,529.48l105.6-2c7.11-.14,14.3.11,21.33-1.19a62.32,62.32,0,0,0,17-5.8c8.46-4.34,18.28-12.44,16-23.14-1.25-5.94-6-10.43-11.37-12.92-6.89-3.23-14.53-5.19-21.8-7.38-16-4.82-32.86-8.67-49.72-7.39-24.87,1.9-51.53,17.68-55.13,44.27-2,14.67,3.57,29.07,11.49,41.19s18.31,22.69,29.1,32.36a267.42,267.42,0,0,0,71.35,45.76,273.22,273.22,0,0,0,81.73,21.54,257.82,257.82,0,0,0,83.17-5.18,271.54,271.54,0,0,0,76.58-30.38,267.91,267.91,0,0,0,63.93-51.91c4.56-5.07,8.89-10.34,13.05-15.75,1-1.29.18-3.34-1.08-4.1a3.09,3.09,0,0,0-4.11,1.07,256.79,256.79,0,0,1-56.75,54,267.81,267.81,0,0,1-70.52,35.08,255,255,0,0,1-77.64,12.53,260.9,260.9,0,0,1-79.39-12.33A267,267,0,0,1,1655.49,602a253.34,253.34,0,0,1-31-25.66c-10.09-9.8-19.6-20.48-25.91-33.17-5.88-11.81-8.34-25.77-2.94-38.24,4.69-10.82,14.19-18.73,24.69-23.63,27.35-12.76,59.08-2.52,85.91,6.58,5.23,1.78,11.13,4.4,12.82,10.18,1.08,3.73-.64,7.29-3.13,10-6.94,7.63-18.44,11.71-28.47,12.86-7.42.85-15.1.49-22.57.63l-25,.47-50.12,1-24.61.46c-3.86.08-3.87,6.08,0,6Z"/><path class="cls-1" d="M2007.31,457.18l75.1,229.26q-2.47-87.9-5-175.78c-.69-24.61-1.18-50.24,9.2-72.56,25-53.65,105.11-61.27,153.09-26.64s68.6,96.13,76,154.85"/><path class="cls-1" d="M2004.41,458l29.32,89.48L2063,636.94l16.48,50.29c1,3.11,6,2.73,5.89-.79l-2.13-75.6-2.13-75.6c-.34-12-.78-24.08-1-36.12-.16-11.16,0-22.42,1.64-33.47,1.54-10.3,4.35-20.52,9.27-29.73a71.5,71.5,0,0,1,13-17.42c10.46-10.29,23.79-17.23,37.89-21.13a115.34,115.34,0,0,1,45.84-2.9,113.73,113.73,0,0,1,43.27,14.89c15.41,9.26,28.62,22.45,39.18,36.92a202.35,202.35,0,0,1,26.11,50,312,312,0,0,1,14.37,56.37q1.11,6.79,2,13.62a3.1,3.1,0,0,0,3,3c1.46,0,3.2-1.39,3-3a349.25,349.25,0,0,0-12.07-58.14c-5.74-18.78-13.43-37.12-23.78-53.84a159.94,159.94,0,0,0-38.46-43.09,114.75,114.75,0,0,0-43.9-20.51A125.81,125.81,0,0,0,2152.1,389c-15.17,2.46-30.11,8-42.58,17.11a80.59,80.59,0,0,0-29,39.22c-7.55,21.88-6.61,45.57-6,68.36l2.18,77.13,2.17,76.83.52,18.75,5.9-.8L2056,596.16l-29.31-89.48-16.48-50.3c-1.2-3.65-7-2.08-5.79,1.6Z"/></svg>