<svg id="Layer_1" data-name="Layer 1" xmlns="http://www.w3.org/2000/svg" viewBox="0 0 2111 1460"><defs><style>.cls-1{fill:red;}</style></defs><path class="cls-1" d="M312.4,353.4a2988.22,2988.22,0,0,0,88.23,983.72c-42.85-129.19-85.92-259.35-103.42-394.32s-8-276.66,50.62-399.51c16.13-33.81,36.33-66.51,64.95-90.68,7.83-6.62,19.74-12.54,27.54-5.89,4.1,3.48,5.27,9.23,6.1,14.55C467,594.74,415,737.2,313.24,826c66.35.29,127.17,55.13,187.5,114.74C572.67,1011.79,643.9,1089.65,723,1090L313,826"/><path class="cls-1" d="M309.4,353.4Q302,450,300.83,546.9q-1.14,97.32,4.07,194.58,5.18,96.72,16.6,193,11.36,95.64,28.81,190.43,17.56,95.25,41.31,189.23,3,11.91,6.12,23.8l5.78-1.6c-31-93.47-62.06-187.17-83.58-283.38-20.5-91.64-32-185.67-26-279.64,2.92-45.78,10-91.35,22.14-135.62,11.9-43.38,28.36-86.34,51.41-125.09,11.11-18.69,24.16-36.33,40-51.27,6.61-6.23,17.84-17.61,28.06-13.9,5.46,2,6.81,8.07,7.71,13.19s1.54,10.45,2.14,15.69a395,395,0,0,1-4.65,118.32C425.84,673,388.14,747.16,332.08,804.11c-6.73,6.85-13.74,13.42-21,19.75-2,1.76-.35,5.09,2.12,5.12,30.94.32,59.84,12.57,85.64,28.89,29.7,18.79,56,42.63,81.23,66.9,25.71,24.71,50.45,50.4,76.28,75,23.9,22.74,48.82,44.91,76.68,62.74,27,17.28,57.45,30.18,89.93,30.51,3.08,0,4-4,1.51-5.59l-40.9-26.34-97.8-63L467.13,921.68l-102.2-65.81-33.69-21.69c-5.28-3.4-10.48-7.34-16-10.31-.24-.14-.47-.31-.71-.46-3.25-2.1-6.26,3.09-3,5.18l40.9,26.34,97.8,63,118.68,76.41,102.2,65.81,33.69,21.69,10.56,6.8c1.66,1.07,3.59,2.84,5.46,3.51a4.52,4.52,0,0,1,.71.46L723,1087c-29.59-.3-57.37-11.53-82.31-26.81-28.56-17.51-53.9-39.9-78.15-62.87-50.72-48-97.17-102.8-155.86-141.54-27.9-18.42-59.52-32.45-93.44-32.8l2.12,5.12c61.71-54,105.29-127.43,125.6-206.74a407.18,407.18,0,0,0,12.4-121.66q-.81-15.51-2.86-30.92c-1.11-8.33-1.49-19-8.66-24.65-16.59-13.12-39.08,12.7-48.94,23.52-30.14,33.08-50,75-65.71,116.46-16.73,44.17-27.76,90.37-34.08,137.14-12.83,95-6.28,191.49,11.22,285.45,18.74,100.61,49.57,198.43,81.57,295.47q5.89,17.88,11.84,35.75c1.2,3.64,6.77,2.17,5.78-1.6q-24.36-93.25-42.69-188Q342.35,1052.73,330.14,956q-12.06-95.62-17.94-191.9-5.91-96.69-5.55-193.61.36-96.39,7-192.61.84-12.27,1.78-24.51c.3-3.85-5.7-3.83-6,0Z"/><path class="cls-1" d="M922.77,713.48c57.67,6.25,123.41,10,165.72-29.7,15.89-14.91,27-36.82,23.13-58.26s-26.84-39.36-47.6-32.74c-23.93,7.61-30.08,38.24-30.54,63.34-.49,27.06,1,54.81,11.5,79.77,23.22,55.28,89.17,85.31,148.5,76.63S1303.83,762.26,1334.87,711"/><path class="cls-1" d="M922.77,716.48c28.13,3,56.63,5.45,84.89,2.76,27.2-2.59,54.19-10.22,75.95-27.33s40.16-48,28.15-76.06a46.67,46.67,0,0,0-27.46-25.61,35,35,0,0,0-34.21,7.06c-8.92,7.77-13.73,19.41-16.37,30.7-3.09,13.16-3.43,26.72-3.3,40.18.29,31,4.93,63,22.83,89.09,14.35,21,35.2,37,58.46,47a153.72,153.72,0,0,0,75.8,12c27.72-2.83,54.38-13.16,77.7-28.25,23.8-15.39,44.29-35.56,60.91-58.45q6-8.29,11.34-17.08c2-3.31-3.17-6.33-5.18-3a234.87,234.87,0,0,1-52.9,60.95c-20.73,16.73-44.83,29.57-70.73,36.06a147.31,147.31,0,0,1-74-.53c-23.43-6.28-45.52-18.22-62.7-35.45a114.22,114.22,0,0,1-21-28.86c-6.9-13.59-10.76-28.64-12.67-43.71a268.85,268.85,0,0,1-1.63-46.35c.53-11.54,2.19-23.41,6.71-34.12,4.1-9.72,11.11-18.49,21.47-21.77,11.38-3.6,23.42,1,31.81,8.89,9.52,9,13.73,21.3,12.58,34.28-1.24,14-8.44,27.26-17.73,37.6-17.54,19.53-42.59,30.09-68,34.65-26.65,4.79-54.13,3.69-81,1.34-6.58-.57-13.15-1.24-19.72-1.95-1.63-.18-3,1.5-3,3a3.07,3.07,0,0,0,3,3Z"/><path class="cls-1" d="M1651.24,582.84a305.23,305.23,0,0,0-140-44.22c-12.76-.79-26.32-.58-37.27,6-13.71,8.26-20.14,24.47-24.93,39.74a506.75,506.75,0,0,0-22.39,122.24c-.81,13.87-.23,29.75,10.31,38.81,17.13,14.74,43.12-.58,59-16.65,77.28-78.15,124.31-182.15,150.31-288.94s32.33-217.25,38-327c-3.73,265.71-5.18,539.79,95.55,785.69"/><path class="cls-1" d="M1652.75,580.25a309,309,0,0,0-106.37-40.4c-17.78-3.17-37.12-6.22-55.16-3.91-17,2.18-29.4,12-37.09,27-8.38,16.43-12.76,35.34-17.06,53.16a514.43,514.43,0,0,0-10.84,60.6c-1.17,9.94-2.07,19.91-2.63,29.9-.44,7.88-.48,15.94,1.37,23.66,3.47,14.47,15.26,25.14,30.61,24,15.58-1.14,29.91-11.23,40.81-21.76a410,410,0,0,0,35.8-40.2,549.42,549.42,0,0,0,57.74-89.93c34.08-66.1,55.93-137.82,69.76-210.72,15.54-81.95,21.43-165.32,25.93-248.49q.83-15.18,1.6-30.36h-6c-.73,52.13-1.37,104.26-1.18,156.4s1.21,104.49,3.81,156.68c2.59,51.9,6.75,103.75,13.27,155.32a1452.57,1452.57,0,0,0,27.13,152.45,1125.56,1125.56,0,0,0,45.49,147.74q3.48,9,7.14,17.9c1.44,3.53,7.24,2,5.78-1.59a1103.34,1103.34,0,0,1-47.9-146.38,1393.44,1393.44,0,0,1-29.23-151.85c-7.1-51.41-11.71-103.16-14.68-155-3-52.14-4.31-104.37-4.71-156.6-.39-51.94.12-103.87.81-155.8l.27-19.3c0-3.88-5.8-3.84-6,0-4.11,79.65-8.5,159.48-20.66,238.39-11.12,72.21-28.85,143.76-58.12,210.88a595.7,595.7,0,0,1-48.62,90.22,505.13,505.13,0,0,1-30.37,41.35c-10.63,13-21.78,26.25-34.35,37.44-10.62,9.46-27,20.62-42,16.47-16.31-4.49-18.17-23.41-17.66-37.55,1.42-39,8.68-78.15,19.62-115.52,4.45-15.22,9.06-32.73,21.42-43.64,13.61-12,33.64-10.07,50.4-8.5a301.62,301.62,0,0,1,105.82,30.29q11.79,5.88,23,12.77c3.31,2,6.33-3.17,3-5.18Z"/></svg>