<svg id="Layer_1" data-name="Layer 1" xmlns="http://www.w3.org/2000/svg" viewBox="0 0 2235 1274"><defs><style>.cls-1{fill:#ff0;}</style></defs><path class="cls-1" d="M354.48,317.94c14.06,69.42,101.59,109.49,166.74,81.7s98-109.92,78.08-177.89c48.46,225.84,96.88,457.88,101.13,687.33,2.28,122.94-8.12,245.14-38,365.24L701,975,628,356"/><path class="cls-1" d="M351.59,318.74c11.39,54.34,65.3,90.11,118.73,92.65,59.29,2.82,108.15-38.81,127.84-92.72,11.38-31.15,13.2-65.79,4-97.72-1.07-3.73-6.59-2.17-5.79,1.59,14.56,67.86,29,135.76,42.26,203.89,13.29,68.31,25.39,136.88,35.17,205.79,9.72,68.53,17.12,137.42,21,206.53,3.81,68.42,4.13,137.07-.33,205.47-4.47,68.74-13.82,137.18-29,204.39q-2.84,12.48-5.92,24.91l5.9.8,8.29-64.39,16.62-129,12.5-97.05c.42-3.23,1.19-6.58,1-9.84-.23-4.91-1.17-9.9-1.74-14.78L693.39,885,679.9,770.66l-15.66-132.8L649.13,509.72,637.24,408.93l-6-50.65L631,356c-.45-3.79-6.45-3.83-6,0l4.17,35.32,10.71,90.82L654.4,605.27,670.17,739l14.3,121.27,10.13,85.84L697.29,969a39.86,39.86,0,0,1,.61,6.79c-.43,8.23-2.14,16.59-3.19,24.75l-6.51,50.51L671.43,1181.2,660,1269.76l-.58,4.56c-.44,3.38,5.09,4,5.89.8a1298.37,1298.37,0,0,0,33-202.56c5.84-68.92,6.66-138.21,3.75-207.29-2.93-69.35-9.6-138.5-18.73-207.29s-20.73-137.44-33.66-205.72C636.65,383.32,622.24,314.64,607.56,246q-2.67-12.54-5.37-25.08l-5.79,1.59c15.27,53.17-1.14,114.91-42.26,152.33-20.19,18.38-45.91,29.58-73.27,30.58a131.36,131.36,0,0,1-73.94-20.1c-24.69-15.46-43.52-39.43-49.56-68.2-.79-3.78-6.57-2.18-5.78,1.59Z"/><path class="cls-1" d="M808.45,629.53c22.1-3.14,44.2,4.46,66.47,5.9s48.59-6.56,55.58-27.76c4.86-14.75-1.83-31.52-13.24-42.06s-26.71-15.82-41.91-19c-6.66,32-12.47,64.88-7.22,97.11s23.56,64.07,53.41,77.29c25.61,11.33,56.21,7.3,81-5.74s44.43-34.16,60.79-56.9"/><path class="cls-1" d="M809.25,632.42c17.87-2.48,35.75,2.27,53.35,4.7,7.61,1,15.25,1.82,22.93,1.28a74.87,74.87,0,0,0,19.6-3.86c12.28-4.29,23.25-12.44,27.87-25,5.33-14.41,0-30.55-9.58-41.86C913,555.41,897.23,548.84,882,545c-1.93-.48-3.86-.92-5.8-1.34a3,3,0,0,0-3.69,2.1c-5.67,27.21-10.8,55.05-9,83,1.46,22.76,7.86,45.37,20.94,64.26a92.76,92.76,0,0,0,22.33,23,78.08,78.08,0,0,0,31.07,13.14c24.12,4.46,49.28-1.42,70.35-13.52,20.89-12,37.93-29.55,52.46-48.56q2.72-3.54,5.32-7.17a3,3,0,0,0-1.08-4.1,3.06,3.06,0,0,0-4.11,1.07c-13.37,18.57-28.94,36.11-48.08,48.9s-42.3,20.49-65.65,18.6a74.24,74.24,0,0,1-31.3-9.69,81.7,81.7,0,0,1-22.55-19.82c-13-16.27-20.47-36.87-22.92-57.48-3.19-26.87.8-53.9,6-80.24q1-4.86,2-9.72l-3.69,2.1c14.65,3.12,29.73,8.08,40.87,18.54,9.74,9.15,16.12,23.44,12.83,36.65a30,30,0,0,1-8.43,14.44,35,35,0,0,1-6.69,5.15,51.54,51.54,0,0,1-7.67,3.81c-12.59,4.89-25.58,5.22-39,3.58-17.31-2.12-34.52-6.77-52.1-5.7-2.26.14-4.51.4-6.76.71-1.6.22-2.48,2.27-2.09,3.69a3.07,3.07,0,0,0,3.69,2.09Z"/><path class="cls-1" d="M1051.37,241.23a2582.86,2582.86,0,0,0,125.79,667.85"/><path class="cls-1" d="M1048.37,241.23Q1052,307.82,1059,374.17q7,66.07,17.42,131.74t24.12,130.52q13.8,65.25,30.94,129.72t37.61,128q2.55,7.89,5.14,15.77c1.21,3.65,7,2.09,5.79-1.59q-20.76-63-38.26-127.09t-31.68-128.9q-14.17-64.83-25-130.34-10.86-65.72-18.33-131.93-7.42-66-11.44-132.23-.51-8.3-1-16.57c-.21-3.84-6.21-3.87-6,0Z"/><path class="cls-1" d="M1150.57,201.77a2694,2694,0,0,0,89.16,720.29l-4-17.77"/><path class="cls-1" d="M1147.57,201.77q-.84,71,2,142,2.91,71.28,9.59,142.34,6.61,70.38,16.91,140.36Q1186.47,697,1200.56,767q14,69.6,31.71,138.38,2.25,8.76,4.57,17.51c1,3.75,6.63,2.16,5.78-1.59l-4-17.78c-.85-3.77-6.63-2.17-5.79,1.6l4,17.77,5.78-1.59Q1224.5,852.63,1210,783.1q-14.42-69.15-25.19-139-10.87-70.46-18-141.42-7.08-70.64-10.44-141.58t-3-141.93q.06-8.7.16-17.4c0-3.87-6-3.87-6,0Z"/><path class="cls-1" d="M1466.46,608.39c-21.34,2.08-43.16,4.13-64-1s-40.76-19-47.26-39.41c-8-25.15,6.81-53,28.21-68.47,31.31-22.59,78.93-22.33,106.45,4.75s26,79.45-5.9,101.13"/><path class="cls-1" d="M1466.46,605.39c-18.28,1.78-37,3.7-55.27.7-14.6-2.39-28.75-8.12-39.6-18.28a50.89,50.89,0,0,1-12-16.59,44.25,44.25,0,0,1-3.54-20.12c.69-14,7.55-27.68,17-38.2a79.43,79.43,0,0,1,34.38-22.25,87.85,87.85,0,0,1,39.8-3.63c13.21,1.94,26,7,36.12,15.36a63.43,63.43,0,0,1,7,6.7,51.17,51.17,0,0,1,5.3,6.95,62.8,62.8,0,0,1,7.49,16.08,74,74,0,0,1,2.13,8.82c.13.72.25,1.45.36,2.17,0,.21.06.41.08.62,0-.07,0-.37,0,0l.15,1.25c.17,1.5.29,3,.37,4.53a74.66,74.66,0,0,1-.11,9.22,57.73,57.73,0,0,1-1.17,8.43,68.12,68.12,0,0,1-2.41,8.77,52.82,52.82,0,0,1-3.33,7.7,59.48,59.48,0,0,1-4.64,7.49c-.52.7-.6.8-1,1.32s-1,1.26-1.57,1.87q-1.45,1.66-3,3.21a46.6,46.6,0,0,1-6.47,5.29,3.07,3.07,0,0,0-1.08,4.1,3,3,0,0,0,4.11,1.08,60.7,60.7,0,0,0,22.72-30.18,75.93,75.93,0,0,0,2.87-38.29A70.44,70.44,0,0,0,1494.71,505c-9.4-10.56-22.27-17.86-35.83-21.6a92.31,92.31,0,0,0-43.15-1.13,88.56,88.56,0,0,0-39.16,18.87c-11.72,9.94-21,23.56-24.76,38.54s-1.35,30.77,7.66,43.38,22.42,21.08,36.9,25.74c18,5.79,37.42,5.42,56.05,3.92,4.68-.38,9.36-.83,14-1.28a3.09,3.09,0,0,0,3-3,3,3,0,0,0-3-3Z"/><path class="cls-1" d="M1634.82,437.86c-7.81,33.65,5,71.22,31.73,93.1,8.64,7.06,19.81,12.76,30.64,10.07,9.75-2.42,16.63-10.95,22.26-19.27a263.68,263.68,0,0,0,43.86-122L1870.58,425c13.26,3.11,28.06,6,39.79-.9,7.72-4.55,12.66-12.66,16.08-20.94,13.44-32.51,6.5-72.48-17.11-98.56"/><path class="cls-1" d="M1631.93,437.06a96.87,96.87,0,0,0,3.63,54.61c6.39,17.46,17.6,33.51,32.78,44.42,8.34,6,18.8,10.29,29.17,7.94,9.76-2.2,16.86-10,22.46-17.78,12.42-17.28,22.25-36.64,29.88-56.47a266.6,266.6,0,0,0,15.58-62.18q.49-3.92.88-7.85l-3.8,2.89,64.42,15.14,32.35,7.6c9.6,2.25,19.25,4.93,29.11,5.73,9.09.73,18.67-.63,26.13-6.23,7.28-5.47,11.82-13.47,15.16-21.79,6.32-15.75,7.86-33.13,5.42-49.86a97.89,97.89,0,0,0-19.66-46.08q-1.9-2.43-4-4.72c-2.59-2.88-6.82,1.38-4.24,4.24a90.92,90.92,0,0,1,21,42.08,92.12,92.12,0,0,1-2.32,47.15c-2.43,7.51-5.81,15.2-11.34,21-5.93,6.2-13.89,8.55-22.32,8.42-9.21-.13-18.21-2.61-27.12-4.7l-30.93-7.27-62.43-14.66-7.67-1.8a3,3,0,0,0-3.79,2.89,260.88,260.88,0,0,1-39.53,114.53c-4.81,7.54-10,16-17.65,20.89a21.4,21.4,0,0,1-12.55,3.52,30.83,30.83,0,0,1-13.14-4c-7.93-4.26-14.73-10.62-20.48-17.48a93.23,93.23,0,0,1-20.48-72.18c.33-2.15.75-4.29,1.23-6.41.86-3.76-4.92-5.36-5.78-1.59Z"/></svg>