<svg id="Layer_1" data-name="Layer 1" xmlns="http://www.w3.org/2000/svg" viewBox="0 0 599.5 440.02"><defs><style>.cls-1{fill:red;}.cls-2{fill:#00b926;}</style></defs><path class="cls-1" d="M343.49,119.3l-93.55-7.24c-29.4-2.27-59.18-4.92-88.35.94C112,123,72.18,160.47,50,204.7c-12.62,25.15-20.4,52.42-24.78,80.14-4.53,28.72-6.88,58.47-3.82,87.47,2.83,26.77,10.56,53.42,26.29,75.57a115.82,115.82,0,0,0,27.16,27.53c11.12,7.94,23.87,13.53,36.85,17.67,13.31,4.25,27.06,6.95,40.83,9.24,15.25,2.53,30.61,4.45,46,5.87,30.47,2.81,61.08,3.65,91.67,3.87,30.43.22,60.91.32,91.34-.5,30.2-.82,60.68-2.86,90.3-9.17,26.35-5.62,51.94-15.43,73.84-31.34,20.36-14.79,37.61-33.95,48.66-56.67,12.44-25.55,17.41-53.62,20.51-81.64Q617.39,310,618.51,287c.73-14.7,1.35-29.52.77-44.23-.56-14.31-2.83-28.53-9.16-41.49C604.59,190,596,180.19,586.36,172.17c-20.22-16.83-44.94-28.38-69.63-37-50.91-17.87-106-21.6-159.54-18.61-13.09.73-26.16,1.89-39.19,3.35l5.31,12.81,12.4-9.61c3.2-2.49,2.61-8,0-10.61-3.16-3.16-7.39-2.49-10.61,0l-12.4,9.61c-5,3.85-.92,13.5,5.3,12.8,51.55-5.8,104.5-6.92,155.49,3.82,25,5.27,49.45,13.33,72.19,25,20.52,10.57,41.15,24,51.49,45.15,5.5,11.26,6.87,24.14,7.2,36.52.38,14.43-.2,28.93-1,43.34-1.45,27.71-3.6,55.88-10,82.94-5.74,24.3-16,47.25-32.54,65.73A153.1,153.1,0,0,1,504.27,477c-26.14,10.55-54.33,15-82.28,17.38-29.4,2.51-58.94,2.59-88.43,2.67-58.87.17-118.24.48-176.5-9.13-25.46-4.2-51.83-9.7-73.42-24.63-18.91-13.08-32.16-33.85-39.51-55.4-9-26.42-10-54.63-8.35-82.26,1.64-26.89,5.67-53.74,13.67-79.52,14.12-45.53,42.49-87.44,85.92-108.62,23-11.23,49.53-13.75,75.37-13,29.55.9,59.11,4,88.59,6.32l44.16,3.42c4,.31,7.5-3.67,7.5-7.5,0-4.32-3.44-7.19-7.5-7.5Z" transform="translate(-20.01 -72.19)"/><path class="cls-2" d="M318.14,140.72q-7.62-4.83-14.94-10.08-3.75-2.68-7.41-5.49l-.7-.54c-1.27-1,1.39,1.09.13.1-.58-.45-1.16-.9-1.73-1.36q-1.82-1.42-3.6-2.88a310.53,310.53,0,0,1-26.56-24.33Q256.21,88.81,249.58,81l-5.3,12.81a34.75,34.75,0,0,1,3.8.31l-2-.27a42.44,42.44,0,0,1,10.11,2.87L254.4,96a78.65,78.65,0,0,1,14.15,8.14c2.31,1.62,4.58,3.31,6.84,5l1.89,1.44.76.58c1,.78-.3-.19-.39-.3a12.68,12.68,0,0,0,1.87,1.46l1.87,1.47c9.45,7.48,18.61,15.32,27.65,23.28q7.68,6.77,15.29,13.6c2.92,2.61,7.76,3.1,10.61,0s2.7-7.39,0-10.61c-.77-.91-1.51-1.84-2.25-2.77-.59-.74,1,1.28.4.52l-.5-.67c-.38-.51-.75-1-1.12-1.53-1.38-1.93-2.69-3.92-3.92-6A99.94,99.94,0,0,1,321.07,117l.76,1.79a98,98,0,0,1-6.71-24.64l.27,2q-.43-3.33-.64-6.68L300,91.4c5.7,17.22,11.36,34.45,17.1,51.66,1.64,4.91,3.58,9.83,7.39,13.49a7.59,7.59,0,0,0,12.54-3.31q5-16,10-32l-14.74-2-1.27,32.25h15l.08-26.48a28.75,28.75,0,0,0-1.37-10.18c-1.65-4.43-4.87-8.56-9.8-9.47a7.67,7.67,0,0,0-6.54,1.34c-2,1.55-2.66,3.44-3,5.89l-2.19,18.27,14-3.78a40.1,40.1,0,0,1-1.8-3.59l.76,1.8a35.67,35.67,0,0,1-2.47-9l.27,2c0-.3-.07-.59-.1-.89a8.18,8.18,0,0,0-2.2-5.3,7.5,7.5,0,0,0-10.61,0,8.78,8.78,0,0,0-2.19,5.3,108.86,108.86,0,0,0-.31,23.8c.27,2.71,1.27,5,3.72,6.48a7.61,7.61,0,0,0,7.57,0c8.39-4.81,12.57-13.95,17-22.1l14.57-26.78,8.35-15.37-13.71-5.78A247.37,247.37,0,0,1,341,127.78l.76-1.79c-1.14,2.71-2.34,5.4-3.57,8.06a8.08,8.08,0,0,0-.76,5.78,7.65,7.65,0,0,0,3.45,4.49c3.85,2,7.83.73,10.26-2.69l29.22-41.25-13.71-5.77c-.1.24-.21.49-.31.74l.76-1.79a75.63,75.63,0,0,1-6.32,11.72c-.58.89-1.18,1.76-1.79,2.62l-1.05,1.45-.48.63c-.76,1,.89-1.13.33-.41-1.36,1.72-2.76,3.41-4.22,5.05a167.29,167.29,0,0,1-19.8,18.48c-2,1.62-4,3.22-6.06,4.8L326.26,139l.56-.43-.8.62-3.21,2.46c-2.17,1.66-3.71,3.57-3.71,6.47,0,2.44,1.38,5.41,3.71,6.48a26.69,26.69,0,0,0,23.58.15,7.5,7.5,0,0,0,3.45-4.48,7.67,7.67,0,0,0-.76-5.78,7.59,7.59,0,0,0-4.48-3.45,8.78,8.78,0,0,0-5.78.76l-.39.17,1.79-.76a20.74,20.74,0,0,1-4.88,1.32l2-.27a21.5,21.5,0,0,1-5.07,0l2,.27a20.18,20.18,0,0,1-4.89-1.3l1.79.76-.78-.34v13c15.68-12,31.49-24.26,42.68-40.78a83.8,83.8,0,0,0,8-15.25,7.41,7.41,0,0,0-.75-5.78,7.76,7.76,0,0,0-3.59-3.06c-3.62-1.53-7.18,0-9.37,3.06l-29.21,41.24,12.95,7.58A257.15,257.15,0,0,0,367.65,95q1.64-6.66,2.9-13.39c.7-3.71-.73-7.32-4.35-8.84a7.47,7.47,0,0,0-9.36,3.06L342.63,102c-4.56,8.39-8.91,16.93-13.73,25.18-.57,1-1.15,1.92-1.78,2.85-.29.43-.6.85-.9,1.28-.52.75,1-1.3.46-.59l-.61.75a23.6,23.6,0,0,1-2.15,2.21,3.54,3.54,0,0,1-.58.5c.35-.14,1.47-1.08.44-.36-.47.33-1,.64-1.47.93l11.28,6.47a108.86,108.86,0,0,1,.31-23.8h-15a43.82,43.82,0,0,0,5.39,17.26,7.6,7.6,0,0,0,8.47,3.44,8.89,8.89,0,0,0,3.31-1.92c1.54-1.42,2-3.34,2.2-5.31l2.19-18.27L331,119.82a6.2,6.2,0,0,1,1.12.31l-1.79-.76c.34.15.64.36,1,.52-1.13-.92-1.43-1.14-.88-.66.13.13.26.26.38.4-.86-1.17-1.08-1.45-.66-.85.11.16.21.32.31.49a10.4,10.4,0,0,1,.52,1.06l-.75-1.79a17.08,17.08,0,0,1,1,4l-.26-2a49.82,49.82,0,0,1,.2,6.23l0,8.24-.05,16.49c0,3.92,3.46,7.68,7.5,7.5a7.67,7.67,0,0,0,7.5-7.5l1.27-32.25a7.51,7.51,0,0,0-14.73-2q-5,16-10,32l12.54-3.31c-.14-.12-1.16-1-1.1-1.16,0,0,1.05,1.51.44.57-.18-.27-.37-.55-.54-.83a23.56,23.56,0,0,1-1.56-3l.76,1.79c-1.77-4.23-3-8.7-4.47-13.05l-4.75-14.35-9.42-28.46A7.55,7.55,0,0,0,306.25,82c-3.48.47-6.74,3.63-6.5,7.37a104.79,104.79,0,0,0,15.51,48.89,109.66,109.66,0,0,0,9.07,12.37l10.61-10.61c-10.76-9.62-21.52-19.24-32.61-28.48q-8.77-7.31-17.85-14.24a139.59,139.59,0,0,0-16.76-11.49c-7.24-4-15.11-6.78-23.44-7a7.48,7.48,0,0,0-6.86,4.61A7.68,7.68,0,0,0,239,91.63a318.74,318.74,0,0,0,54.53,50.42q8.33,6.09,17.07,11.62A7.56,7.56,0,0,0,320.83,151a7.67,7.67,0,0,0-2.69-10.26Z" transform="translate(-20.01 -72.19)"/></svg>