<svg id="Layer_1" data-name="Layer 1" xmlns="http://www.w3.org/2000/svg" viewBox="0 0 3609 2242"><defs><style>.cls-1{fill:#fff;}</style></defs><path class="cls-1" d="M305,258.25q-43.93,183.36-82.86,367.87-38.67,183.33-72.33,367.66Q130.77,1098.26,113.3,1203c-2.61,15.67,2.81,30.65,18.24,37.16s29.78-.13,39.34-12.88L421.26,893,670.19,560.69Q740.38,467,810.58,373.26l-58.7-15.9L729.05,727.93c-7.58,123-16.39,246.09-19.12,369.34-1.54,69.38-1,138.83,3.11,208.12.8,13.4,9.18,27.19,23.13,30.37,14.51,3.3,27.15-2.57,35.57-14.48q118.68-167.77,237.35-335.57l236.65-334.59,32.81-46.39c4.72-6.68,9.43-13.37,14.23-20q3.4-4.69,6.89-9.33c1.15-1.53,2.49-3,3.51-4.62l-2.55,3.31c.8-1,1.59-2,2.4-3,9.54-12,19.77-23.46,31.29-33.57.94-.83,1.9-1.66,2.86-2.47s1.93-1.61,2.91-2.4c2.6-2.06,2-1.57-1.92,1.46,3.18-1.27,6.32-4.56,9.24-6.43s5.87-3.61,8.9-5.24c1.38-.74,2.78-1.47,4.19-2.16,1.89-.93,10.28-4.44,1.13-.69,7.92-3.24,14.33-6.79,18.83-14.47,4-6.76,5.62-16.71,3.17-24.28s-7.19-15-14.47-18.82c-7-3.69-16.62-6.32-24.28-3.18-29.4,12.06-54.2,30.6-75.26,54.39-20.85,23.56-38.5,49.87-56.64,75.51L1092.91,758.48Q972.84,928.25,852.77,1098L717.34,1289.49l58.7,15.9c-7.29-123.46-3.26-247.2,3.52-370.58,6.76-123.14,14.91-246.22,22.49-369.31q6.42-104.07,12.83-208.14c.81-13.17-10.31-27.45-23.13-30.37-14.77-3.37-26.8,2.76-35.57,14.47L505.8,675.74,256.86,1008.08q-70.19,93.7-140.38,187.42l57.57,24.27q31-186,67.11-371.07Q277,664.82,317.87,481.94,341,378.29,365.79,275c3.83-16-5-34.88-22-38.75-16.19-3.68-34.65,4.86-38.75,22Z"/><path class="cls-1" d="M1267.62,775.26q-9.94,46.05-19.41,92.19-9.4,45.91-18.35,91.92-9,46.25-17.49,92.57-8.46,46.1-16.45,92.28-8,46.42-15.57,92.91-.94,5.79-1.87,11.57a23.87,23.87,0,0,0-.57,12.56,23.55,23.55,0,0,0,3.74,11.71c3.83,6.54,11.32,12.77,18.83,14.48,8.06,1.84,17.11,1.44,24.27-3.17,6.93-4.47,12.2-10.75,14.48-18.83a616.07,616.07,0,0,1,25.29-72.15l-3.17,7.53a619,619,0,0,1,59.2-108.39q9.89-14.43,20.58-28.3l-4.93,6.38c19.5-25.23,40.74-49.32,66-68.9l-6.38,4.92A195.42,195.42,0,0,1,1438.69,981l-7.53,3.17a134.75,134.75,0,0,1,33.06-9.22l-8.37,1.13a113.62,113.62,0,0,1,29.42-.12l-8.38-1.12.75.1a23.87,23.87,0,0,0,12.56.56,23.35,23.35,0,0,0,11.71-3.74c6.54-3.82,12.77-11.31,14.48-18.82,1.84-8.07,1.44-17.12-3.18-24.27l-4.92-6.38a31.52,31.52,0,0,0-13.9-8.1c-9.5-1.28-18.77-2.48-28.36-2a168.86,168.86,0,0,0-27.88,3.7,134,134,0,0,0-19.28,5.79,225.08,225.08,0,0,0-25.77,11.54c-14.64,7.81-28,17.72-40.85,28.19a310,310,0,0,0-31.48,29.8c-10,10.8-19.36,22.18-28.37,33.81-10.79,13.92-21.28,28-31,42.72a616.5,616.5,0,0,0-44.3,78.64,669.4,669.4,0,0,0-35.4,91.39q-1.65,5.46-3.19,10.94l60.75,16.75q7.49-46.5,15.45-92.93,7.92-46.2,16.33-92.3,8.45-46.35,17.37-92.6,8.88-46,18.24-91.94,9.41-46.15,19.28-92.21,1.23-5.73,2.47-11.46c1.78-8.27,1.18-16.82-3.18-24.27-3.82-6.53-11.31-12.77-18.82-14.48-8.07-1.83-17.12-1.44-24.28,3.18-6.68,4.31-12.74,10.81-14.47,18.82Z"/><path class="cls-1" d="M1750.63,980.79c-4.82-4-9.93-8.17-15.59-11.07a94.08,94.08,0,0,0-17.2-7c-6.06-1.74-12.46-2.44-18.69-3.14a80,80,0,0,0-11.79-.41c-18.53.68-36.62,5.12-53.79,11.93a341,341,0,0,0-52.57,25.8,413.26,413.26,0,0,0-84.8,70.3,365.33,365.33,0,0,0-36.4,46.12,232.81,232.81,0,0,0-25.67,52.39,153.24,153.24,0,0,0-6.27,24.69,152.71,152.71,0,0,0,.34,59.74,118.37,118.37,0,0,0,5.92,21.39c3.45,9,7.32,18.07,12.5,26.28a129.51,129.51,0,0,0,18.18,23c14.68,14.5,33.16,24.78,52.91,30.56,10.35,3,21.23,4.5,31.93,5.5a183.9,183.9,0,0,0,24.84.53c19.47-.81,38.88-3.81,58.06-7.1,18.17-3.12,36.33-6.42,54.18-11a290.62,290.62,0,0,0,58.57-21.81,166.81,166.81,0,0,0,20.59-12.33,206.46,206.46,0,0,0,24.2-19.55,182.09,182.09,0,0,0,19.74-23.1,114.48,114.48,0,0,0,11.89-19.83c4.29-9.22,8.19-18.75,10.33-28.72a139.44,139.44,0,0,0,3.32-33.65c-1.4-41.28-20.06-79.37-42-113.51-4.7-7.32-9.58-14.53-14.5-21.7a30.34,30.34,0,0,0-31.39-15,23.45,23.45,0,0,0-11.71,3.74c-6.73,4.33-12.65,10.79-14.48,18.82l-1.12,8.38a31.31,31.31,0,0,0,4.3,15.9c11.63,16.92,23,34.12,32.41,52.41,2.67,5.21,5.17,10.5,7.46,15.89l-3.17-7.53a157.16,157.16,0,0,1,11.31,39.5l-1.13-8.38a110.47,110.47,0,0,1,.14,29l1.13-8.38a101.37,101.37,0,0,1-7.05,25.76l3.17-7.52a115.38,115.38,0,0,1-14.92,25.17l4.93-6.37a143.34,143.34,0,0,1-25.16,24.92l6.37-4.92a177.41,177.41,0,0,1-39.4,22.67l7.52-3.18c-28.78,12.12-59.61,18-90.24,23.35-7.91,1.37-15.83,2.66-23.78,3.74l8.37-1.13c-19.28,2.59-38.92,4-58.28,1.45l8.37,1.13a114.64,114.64,0,0,1-29.29-7.74l7.52,3.17a92.08,92.08,0,0,1-19.76-11.45l6.38,4.92a90.09,90.09,0,0,1-16.05-16.07l4.93,6.38a103.84,103.84,0,0,1-13.13-22.65l3.18,7.53a121.33,121.33,0,0,1-8.23-30.44l1.13,8.37a129.44,129.44,0,0,1,0-34.17l-1.12,8.38a156.91,156.91,0,0,1,11.05-39.28l-3.18,7.53c7.71-18.18,18.28-35,30.32-50.59l-4.92,6.38a381.79,381.79,0,0,1,51.55-54.18q8-7,16.47-13.5l-6.37,4.92a323,323,0,0,1,53.35-33.6q8-3.94,16.16-7.41L1645,1034c13.29-5.58,27-10.24,41.33-12.17L1678,1023a87.49,87.49,0,0,1,22.69-.21l-8.38-1.13a60.94,60.94,0,0,1,14.9,3.95l-7.53-3.17a50.69,50.69,0,0,1,11.21,6.53l-6.37-4.92q.81.63,1.59,1.29a32.41,32.41,0,0,0,44.55,0c5.51-6,9.6-13.88,9.23-22.27l-1.13-8.38a31.57,31.57,0,0,0-8.1-13.9Z"/><path class="cls-1" d="M1952.94,1053.42q-10.35,29.55-20.55,59.17-10.14,29.46-20.1,59T1892.44,1231q-9.8,29.58-19.41,59.24t-19.14,59.63l-2.37,7.47-1.13,8.37a23.71,23.71,0,0,0,2.72,12.14,15.65,15.65,0,0,0,4.05,7,23.85,23.85,0,0,0,8.83,8.11l7.53,3.17,8.37,1.13a35,35,0,0,0,22.28-9.23l67.77-84.81,67.76-84.81c11-13.79,21.57-28.41,35.59-39.36l-6.37,4.93a65.21,65.21,0,0,1,13.92-8.42l-7.52,3.17a42.33,42.33,0,0,1,10.57-3l-8.37,1.13a35.1,35.1,0,0,1,8.75,0l-8.38-1.12a34.77,34.77,0,0,1,8.43,2.3l-7.53-3.18a33.27,33.27,0,0,1,7.14,4.15l-6.38-4.93a34.31,34.31,0,0,1,5.89,5.91l-4.92-6.37a42.44,42.44,0,0,1,5.44,9.5l-3.17-7.52a65.91,65.91,0,0,1,4.22,16.35l-1.12-8.37a114.83,114.83,0,0,1-.37,30.09l1.12-8.37c-1.06,7.79-2.83,15.47-4.58,23.13q-3.17,13.88-6.92,27.61-7.44,27.18-17.16,53.66-5.46,14.83-11.61,29.41l3.18-7.52q-1.12,2.64-2.26,5.28a23.48,23.48,0,0,0-3.74,11.72,32.34,32.34,0,0,0,15,31.38l7.53,3.18a31.7,31.7,0,0,0,16.74,0l7.53-3.18a31.62,31.62,0,0,0,11.3-11.3c8.69-20.1,16.76-40.44,23.69-61.22q9.23-27.69,16-56.11c2-8.44,4.05-16.92,5.45-25.48a187.72,187.72,0,0,0,2.88-27.68c.05-3.34,0-6.68-.32-10a158.85,158.85,0,0,0-2.38-17.65,62.93,62.93,0,0,0-2.38-8.86c-1.35-3.85-3-7.59-4.67-11.32q-.91-2.05-2-4a39.42,39.42,0,0,0-2.3-3.57,110.54,110.54,0,0,0-7.35-9.37,32.83,32.83,0,0,0-3.12-3,96.62,96.62,0,0,0-9.49-7.24,31.65,31.65,0,0,0-3.78-2.1,97.49,97.49,0,0,0-11.54-4.75,34.3,34.3,0,0,0-5.48-1.27c-4.39-.66-8.94-1.51-13.43-1.45a91,91,0,0,0-13.58,1.61,37.39,37.39,0,0,0-5.31,1.3,117.67,117.67,0,0,0-12.32,5,56.57,56.57,0,0,0-5.08,2.61,126.49,126.49,0,0,0-15.91,11.58,111.89,111.89,0,0,0-9.23,8.45,252,252,0,0,0-16.89,19.75L1984,1187.79l-38.43,48.09-38.24,47.86-38.24,47.85-9.46,11.85,52.65,30.64q9.46-29.85,19.1-59.65t19.36-59.25q9.82-29.75,19.81-59.42t20.06-59q10.17-29.62,20.51-59.19l2.58-7.39a23.86,23.86,0,0,0,.57-12.56,23.48,23.48,0,0,0-3.74-11.71,35.12,35.12,0,0,0-18.83-14.47l-8.37-1.13a31.36,31.36,0,0,0-15.9,4.3l-6.37,4.93a31.44,31.44,0,0,0-8.11,13.9Z"/><path class="cls-1" d="M2493.21,1304.68c-22.53-31.47-46.72-64.78-82-83-33.2-17.16-73.21-18.71-106.47-.6-18,9.81-30.7,25.42-38.2,44.23-8.23,20.63-4.9,43.13,4,62.82,16.3,36.16,58,59.75,96.86,60.27,47.62.63,89.58-25.17,127.47-51.14l-24.27,3.18,1.12.4-7.52-3.18c.84.36,1.68,1,2.53,1.26,2.18.71-6.27-5.47-3.41-2.62,2.59,2.6-2.92-3.86-2.93-3.92a18.79,18.79,0,0,0,1.55,2.83l-3.17-7.53a31.39,31.39,0,0,1,2,7.73l-1.12-8.38a55.4,55.4,0,0,1-.22,12.61l1.12-8.37c-2.4,16.75-9.89,33-15.49,48.89q-9.47,26.77-19.25,53.45c-13.2,35.85-27,71.48-41.81,106.69l3.17-7.53c-33.91,80.35-73.38,158.73-123.51,230.29q-9.24,13.21-19,26.07c-1.44,1.91-2.94,3.78-4.35,5.71,6-8.22.18-.26-1.14,1.41q-5,6.3-10,12.48-18.63,22.65-39.07,43.72-21.07,21.72-44,41.6-11.13,9.64-22.67,18.81c-1.7,1.36-3.45,2.67-5.14,4,8.22-6.69,1.06-.82-.76.55q-6.18,4.68-12.48,9.22A596.22,596.22,0,0,1,1989.67,1992l7.53-3.18c-39.87,16.75-81.64,28.69-124.52,34.5l8.37-1.13c-35.42,4.68-71.46,5.38-106.92.65l8.38,1.13a384.94,384.94,0,0,1-97-26.84l7.52,3.18a405,405,0,0,1-49-24.87q-11.62-6.95-22.74-14.66-5.4-3.73-10.66-7.67c-1.56-1.16-3.1-2.35-4.65-3.51,9.07,6.76.9.65-1.06-.93a375.11,375.11,0,0,1-39.65-37q-8.77-9.48-16.85-19.58l-2.22-2.81c-2.44-3.09,5.18,6.84,1.88,2.42-1.14-1.53-2.29-3-3.42-4.58q-4.2-5.76-8.17-11.67a316.11,316.11,0,0,1-28.28-52.22l3.17,7.53a287.27,287.27,0,0,1-19.85-72.14l1.12,8.37a285.1,285.1,0,0,1-2.36-31.57c-.31-16.47-14.27-32.28-31.5-31.5-16.8.75-31.83,13.84-31.5,31.5,1,54.74,16.94,108.43,44.61,155.59,27.88,47.5,66.61,87.34,111,119.53a417.88,417.88,0,0,0,145.52,67.15c57.42,13.92,116.29,13.94,174.38,4.38,57.51-9.46,113.13-30.15,164.46-57.55,52.39-28,100.8-64,144-104.6,45-42.31,84.06-90.74,118.35-142.06,34.84-52.17,64.42-107.69,90.53-164.68,27.31-59.59,51.16-120.72,73.46-182.34q8-22,15.73-44.15c5-14.17,10.45-27.93,12.46-42.88,2.49-18.49-.25-38.26-14-52.07-12.07-12.11-31-17.54-46.25-7.89-6.54,4.14-12.83,8.73-19.35,12.92-13,8.38-26.49,16.11-40.77,22.19l7.52-3.18a141.86,141.86,0,0,1-35.15,9.85l8.38-1.13a96.89,96.89,0,0,1-23,.32l8.38,1.13a83.7,83.7,0,0,1-20-5.4l7.53,3.18a89.4,89.4,0,0,1-13.19-6.9c-1.43-.91-7.53-5.41-2.87-1.81,4.46,3.46.74.54-.26-.32s-1.83-1.61-2.72-2.45c-1.59-1.49-3.12-3-4.57-4.67-.81-.9-1.56-1.83-2.34-2.74-2.4-2.79,4.59,6.54,1.91,2.4a80,80,0,0,1-6.74-12.19l3.18,7.52a57.45,57.45,0,0,1-3.52-13.12l1.12,8.37a52.62,52.62,0,0,1,0-12.29l-1.12,8.37a53,53,0,0,1,3.23-11.86l-3.18,7.52a62.63,62.63,0,0,1,4.7-8.63c2.65-4.21-5.94,7-1.19,1.6,1.07-1.21,2.2-2.36,3.38-3.47,2.14-2,7.09-4.79-1.71,1,1.36-.9,2.65-1.89,4.05-2.76a68.8,68.8,0,0,1,8.81-4.59l-7.52,3.18a80.21,80.21,0,0,1,19.67-5.37l-8.38,1.13a88.35,88.35,0,0,1,22.1-.08l-8.37-1.12a81.24,81.24,0,0,1,19.91,5.3l-7.52-3.18a124.9,124.9,0,0,1,22.46,12.84c3.8,2.67-2.54-2-2.52-2a25.13,25.13,0,0,1,2.52,2c1.67,1.37,3.31,2.79,4.92,4.24,3.44,3.1,6.74,6.35,9.93,9.7,6.09,6.41,11.68,13.21,17.16,20.13,2.41,3-4.19-5.53-1.88-2.42.66.88,1.34,1.76,2,2.65,1.33,1.77,2.64,3.54,3.95,5.33,2.76,3.76,5.49,7.56,8.21,11.36,4.89,6.83,10.46,12.17,18.83,14.48,7.54,2.07,17.58,1.13,24.27-3.18,13.26-8.55,21.56-28.77,11.3-43.1Z"/><path class="cls-1" d="M3159.85,965.47q-29,59-57,118.41-27.87,59.16-54.75,118.8-27,59.89-53,120.24-27.26,63.28-53.46,127-24.89,60.49-48.74,121.39-3,7.76-6,15.51c-2.79,7.16-.55,17.91,3.17,24.27,3.83,6.54,11.32,12.77,18.83,14.48,8.06,1.84,17.11,1.44,24.27-3.18l6.38-4.92a31.57,31.57,0,0,0,8.1-13.9q31.07-79.78,63.87-158.89,9.33-22.52,18.82-45l-3.18,7.53q34.23-81.07,70.26-161.37t73.88-159.74q21.21-44.56,43-88.85c3.77-7.67,5.51-15.81,3.18-24.27-2-7.31-7.66-15.23-14.48-18.83-7.31-3.86-16.16-5.8-24.27-3.17-7.49,2.42-15.23,7.16-18.83,14.47Z"/><path class="cls-1" d="M2789.89,1837.81a32.36,32.36,0,0,0,31.5-31.5l-1.12-8.37a31.52,31.52,0,0,0-8.1-13.9l-6.38-4.93a31.36,31.36,0,0,0-15.9-4.3,23.76,23.76,0,0,0-12.13,2.71,32.41,32.41,0,0,0-19.37,28.79l1.13,8.37a31.52,31.52,0,0,0,8.1,13.9l6.38,4.93a31.35,31.35,0,0,0,15.89,4.3Z"/><path class="cls-1" d="M3377.23,1052.1q-39.54,65.75-75.68,133.45-36,67.4-68.43,136.57-33.91,72.26-64,146.21-29,71-54.4,143.45-25.24,72.09-46.76,145.42-2.68,9.12-5.3,18.26a32.51,32.51,0,0,0,3.18,24.28c3.82,6.53,11.31,12.76,18.82,14.47,16.8,3.83,33.89-5,38.75-22q19.24-67.12,41.6-133.31t47.82-131.21q14.33-36.63,29.62-72.89l-3.18,7.53q32.26-76.42,68.69-151t77-146.93q22.74-40.64,46.75-80.52a32.53,32.53,0,0,0,3.18-24.27c-2-7.31-7.66-15.23-14.48-18.83-15.26-8.06-34-3.79-43.1,11.3Z"/><path class="cls-1" d="M2793.14,1820.34a32.37,32.37,0,0,0,31.5-31.5l-1.12-8.38a31.52,31.52,0,0,0-8.1-13.9l-6.38-4.92a31.26,31.26,0,0,0-15.9-4.3,32.39,32.39,0,0,0-31.5,31.5l1.13,8.37a31.52,31.52,0,0,0,8.1,13.9l6.38,4.92a31.36,31.36,0,0,0,15.89,4.31Z"/><path class="cls-1" d="M2804.44,1825.37a32.36,32.36,0,0,0,31.5-31.5l-1.12-8.37a31.52,31.52,0,0,0-8.1-13.9l-6.38-4.93a31.36,31.36,0,0,0-15.9-4.3,32.39,32.39,0,0,0-31.5,31.5l1.13,8.37a31.33,31.33,0,0,0,8.1,13.9l6.37,4.93a31.41,31.41,0,0,0,15.9,4.3Z"/><path class="cls-1" d="M2804.92,1841a32.36,32.36,0,0,0,31.5-31.5l-1.13-8.37a31.33,31.33,0,0,0-8.1-13.9l-6.37-4.93a31.51,31.51,0,0,0-15.9-4.3,32.37,32.37,0,0,0-31.5,31.5l1.12,8.38a31.57,31.57,0,0,0,8.1,13.9l6.38,4.92a31.26,31.26,0,0,0,15.9,4.3Z"/><path class="cls-1" d="M2778.73,1830.64a32.41,32.41,0,0,0,31.5-31.5l-1.13-8.38a31.38,31.38,0,0,0-8.1-13.9l-6.37-4.92a31.41,31.41,0,0,0-15.9-4.3,32.36,32.36,0,0,0-31.5,31.5l1.12,8.37a31.52,31.52,0,0,0,8.1,13.9l6.38,4.93a31.36,31.36,0,0,0,15.9,4.3Z"/><path class="cls-1" d="M3006.72,1998.56a32.41,32.41,0,0,0,31.5-31.5l-1.13-8.38a31.38,31.38,0,0,0-8.1-13.9l-6.37-4.92a31.41,31.41,0,0,0-15.9-4.3,32.36,32.36,0,0,0-31.5,31.5l1.12,8.37a31.52,31.52,0,0,0,8.1,13.9l6.38,4.93a31.36,31.36,0,0,0,15.9,4.3Z"/><path class="cls-1" d="M3010,1981.08a32.36,32.36,0,0,0,31.5-31.5l-1.13-8.37a31.33,31.33,0,0,0-8.1-13.9l-6.37-4.93a31.41,31.41,0,0,0-15.9-4.3,32.37,32.37,0,0,0-31.5,31.5l1.12,8.38a31.57,31.57,0,0,0,8.1,13.9l6.38,4.92a31.26,31.26,0,0,0,15.9,4.3Z"/><path class="cls-1" d="M3021.27,1986.12a32.39,32.39,0,0,0,31.5-31.5l-1.13-8.37a31.52,31.52,0,0,0-8.1-13.9l-6.38-4.93a31.35,31.35,0,0,0-15.89-4.3,32.36,32.36,0,0,0-31.5,31.5l1.12,8.37a31.52,31.52,0,0,0,8.1,13.9l6.38,4.93a31.36,31.36,0,0,0,15.9,4.3Z"/><path class="cls-1" d="M3021.74,2001.73a32.36,32.36,0,0,0,31.5-31.5l-1.12-8.37a31.52,31.52,0,0,0-8.1-13.9l-6.38-4.93a31.36,31.36,0,0,0-15.9-4.3,32.37,32.37,0,0,0-31.5,31.5l1.13,8.38a31.38,31.38,0,0,0,8.1,13.9l6.37,4.92a31.41,31.41,0,0,0,15.9,4.3Z"/><path class="cls-1" d="M2995.55,1991.39a32.37,32.37,0,0,0,31.5-31.5l-1.12-8.38a31.57,31.57,0,0,0-8.1-13.9l-6.38-4.92a31.26,31.26,0,0,0-15.9-4.3,32.36,32.36,0,0,0-31.5,31.5l1.13,8.37a31.33,31.33,0,0,0,8.1,13.9l6.37,4.93a31.51,31.51,0,0,0,15.9,4.3Z"/></svg>